<svg width="40" height="40" viewBox="0 0 40 40" fill="none" xmlns="http://www.w3.org/2000/svg">
<path d="M35.0002 18.3333H29.7168L33.9502 14.0999C34.6002 13.4499 34.6002 12.3999 33.9502 11.7499C33.3002 11.0999 32.2335 11.0999 31.5835 11.7499L25.0002 18.3333H21.6668V14.9999L28.2502 8.41659C28.9002 7.76659 28.9002 6.69992 28.2502 6.04992C27.6002 5.39992 26.5502 5.39992 25.9002 6.04992L21.6668 10.2833V4.99992C21.6668 4.08325 20.9168 3.33325 20.0002 3.33325C19.0835 3.33325 18.3335 4.08325 18.3335 4.99992V10.2833L14.1002 6.04992C13.4502 5.39992 12.4002 5.39992 11.7502 6.04992C11.1002 6.69992 11.1002 7.76659 11.7502 8.41659L18.3335 14.9999V18.3333H15.0002L8.41683 11.7499C7.76683 11.0999 6.70016 11.0999 6.05016 11.7499C5.40016 12.3999 5.40016 13.4499 6.05016 14.0999L10.2835 18.3333H5.00016C4.0835 18.3333 3.3335 19.0833 3.3335 19.9999C3.3335 20.9166 4.0835 21.6666 5.00016 21.6666H10.2835L6.05016 25.8999C5.40016 26.5499 5.40016 27.5999 6.05016 28.2499C6.70016 28.8999 7.76683 28.8999 8.41683 28.2499L15.0002 21.6666H18.3335V24.9999L11.7502 31.5833C11.1002 32.2333 11.1002 33.2999 11.7502 33.9499C12.4002 34.5999 13.4502 34.5999 14.1002 33.9499L18.3335 29.7166V34.9999C18.3335 35.9166 19.0835 36.6666 20.0002 36.6666C20.9168 36.6666 21.6668 35.9166 21.6668 34.9999V29.7166L25.9002 33.9499C26.5502 34.5999 27.6002 34.5999 28.2502 33.9499C28.9002 33.2999 28.9002 32.2333 28.2502 31.5833L21.6668 24.9999V21.6666H25.0002L31.5835 28.2499C32.2335 28.8999 33.3002 28.8999 33.9502 28.2499C34.6002 27.5999 34.6002 26.5499 33.9502 25.8999L29.7168 21.6666H35.0002C35.9168 21.6666 36.6668 20.9166 36.6668 19.9999C36.6668 19.0833 35.9168 18.3333 35.0002 18.3333Z" fill="#282633"/>
</svg>
