<svg width="40" height="40" viewBox="0 0 40 40" fill="none" xmlns="http://www.w3.org/2000/svg">
<path d="M32.4665 20.5834C29.8498 13.7834 20.5332 13.4167 22.7832 3.53336C22.9498 2.80003 22.1665 2.23336 21.5332 2.6167C15.4832 6.18336 11.1332 13.3334 14.7832 22.7C15.0832 23.4667 14.1832 24.1834 13.5332 23.6834C10.5165 21.4 10.1998 18.1167 10.4665 15.7667C10.5665 14.9 9.43317 14.4834 8.94984 15.2C7.8165 16.9334 6.6665 19.7334 6.6665 23.95C7.29984 33.2834 15.1832 36.15 18.0165 36.5167C22.0665 37.0334 26.4498 36.2834 29.5998 33.4C33.0665 30.1834 34.3332 25.05 32.4665 20.5834ZM16.9998 28.9667C19.3998 28.3834 20.6332 26.65 20.9665 25.1167C21.5165 22.7334 19.3665 20.4 20.8165 16.6334C21.3665 19.75 26.2665 21.7 26.2665 25.1C26.3998 29.3167 21.8332 32.9334 16.9998 28.9667Z" fill="#282633"/>
</svg>
