<svg width="35" height="35" viewBox="0 0 35 35" fill="none" xmlns="http://www.w3.org/2000/svg">
<rect width="35" height="35" rx="10" fill="#f5f5f5"/>
<path fill-rule="evenodd" clip-rule="evenodd" d="M17.5083 7.7002C12.0847 7.7002 7.7002 12.1919 7.7002 17.7487C7.7002 22.1905 10.5095 25.9505 14.4067 27.2812C14.894 27.3813 15.0724 27.065 15.0724 26.799C15.0724 26.566 15.0564 25.7675 15.0564 24.9355C12.328 25.5346 11.7598 23.7377 11.7598 23.7377C11.3214 22.5731 10.6717 22.2738 10.6717 22.2738C9.7787 21.6583 10.7367 21.6583 10.7367 21.6583C11.7273 21.7248 12.2471 22.6897 12.2471 22.6897C13.1238 24.2201 14.5366 23.7877 15.105 23.5215C15.1861 22.8726 15.4461 22.4235 15.7221 22.174C13.546 21.941 11.2565 21.076 11.2565 17.2162C11.2565 16.1182 11.646 15.2199 12.2632 14.5212C12.1658 14.2717 11.8247 13.2401 12.3607 11.8593C12.3607 11.8593 13.1889 11.593 15.0562 12.8907C15.8556 12.6708 16.6801 12.5589 17.5083 12.5579C18.3365 12.5579 19.1807 12.6745 19.9602 12.8907C21.8277 11.593 22.6559 11.8593 22.6559 11.8593C23.1919 13.2401 22.8506 14.2717 22.7533 14.5212C23.3867 15.2199 23.7601 16.1182 23.7601 17.2162C23.7601 21.076 21.4706 21.9243 19.2782 22.174C19.6356 22.49 19.944 23.0889 19.944 24.0372C19.944 25.3847 19.9279 26.4662 19.9279 26.7988C19.9279 27.065 20.1066 27.3813 20.5936 27.2814C24.4909 25.9502 27.3002 22.1905 27.3002 17.7487C27.3162 12.1919 22.9157 7.7002 17.5083 7.7002Z" fill="#DB7A35"/>
</svg>
