<svg width="35" height="35" viewBox="0 0 35 35" fill="none" xmlns="http://www.w3.org/2000/svg">
<rect width="35" height="35" rx="10" fill="#f5f5f5"/>
<path d="M21.2994 27.3002H13.701C10.3921 27.3002 7.7002 24.6084 7.7002 21.2995V13.7009C7.7002 10.392 10.3921 7.7002 13.701 7.7002H21.2994C24.6083 7.7002 27.3002 10.392 27.3002 13.7009V21.2995C27.3005 24.6081 24.6086 27.3002 21.2994 27.3002ZM13.701 9.16786C11.2015 9.16786 9.16788 11.2014 9.16788 13.7009V21.2995C9.16788 23.799 11.2015 25.8325 13.701 25.8325H21.2994C23.7992 25.8325 25.8328 23.799 25.8328 21.2995V13.7009C25.8328 11.2014 23.7992 9.16786 21.2994 9.16786H13.701Z" fill="#DB7A35"/>
<path d="M17.5002 22.4579C14.7664 22.4579 12.5425 20.2337 12.5425 17.4999C12.5425 14.7661 14.7664 12.542 17.5002 12.542C20.2341 12.542 22.4583 14.7661 22.4583 17.4999C22.4583 20.2337 20.2341 22.4579 17.5002 22.4579ZM17.5002 14.045C15.5952 14.045 14.0453 15.5949 14.0453 17.5002C14.0453 19.4053 15.5952 20.9551 17.5002 20.9551C19.4053 20.9551 20.9552 19.4053 20.9552 17.5002C20.9552 15.5949 19.4053 14.045 17.5002 14.045Z" fill="#DB7A35"/>
<path d="M24.2887 12.0027C24.2887 12.7157 23.7109 13.2936 22.9979 13.2936C22.2849 13.2936 21.707 12.7157 21.707 12.0027C21.707 11.2898 22.2849 10.7119 22.9979 10.7119C23.7109 10.7119 24.2887 11.2898 24.2887 12.0027Z" fill="#DB7A35"/>
</svg>
