<svg width="35" height="35" viewBox="0 0 35 35" fill="none" xmlns="http://www.w3.org/2000/svg">
<rect width="35" height="35" rx="10" fill="#f5f5f5"/>
<path d="M27.3002 19.8582V27.2996H23.0444V20.3577C23.0444 18.6141 22.4297 17.4238 20.8892 17.4238C19.7134 17.4238 19.0147 18.2256 18.7063 19.0015C18.5941 19.279 18.5654 19.6642 18.5654 20.0532V27.3002H14.3091C14.3091 27.3002 14.366 15.5417 14.3091 14.324H18.5654V16.1627C18.5567 16.1775 18.5448 16.1913 18.5372 16.2055H18.5654V16.1627C19.1307 15.2807 20.1395 14.019 22.401 14.019C25.2008 14.019 27.3002 15.8736 27.3002 19.8582ZM7.70074 27.3002H11.9554V14.324H7.70074V27.3002ZM12.0823 9.92132C12.0823 11.1478 11.1011 12.1424 9.89122 12.1424C8.68133 12.1424 7.7002 11.1484 7.7002 9.92132C7.7002 8.69481 8.68133 7.7002 9.89122 7.7002C11.1017 7.7002 12.0823 8.69426 12.0823 9.92132Z" fill="#DB7A35"/>
</svg>
