<svg width="40" height="40" viewBox="0 0 40 40" fill="none" xmlns="http://www.w3.org/2000/svg">
<circle cx="20" cy="20" r="18.8281" stroke="#282633" stroke-width="2.34375"/>
<line x1="6.53177" y1="6.51511" x2="33.6411" y2="33.6245" stroke="#282633" stroke-width="2.34375"/>
<path fill-rule="evenodd" clip-rule="evenodd" d="M21.1721 30.3125C24.1799 30.4948 30.0158 28.8828 29.2971 20.9766C29.2971 20.6511 29.0393 19.9766 28.008 19.8828C28.5028 19.375 29.4533 17.375 29.2971 13.4375C29.2875 13.1959 29.1018 12.6953 28.3596 12.5391C27.7346 12.4141 25.0002 12.3359 24.3752 12.7734C24.6356 11.1849 24.1955 7.35156 20.3518 4.72656H19.6486C18.0601 5.76824 15.0393 8.83596 15.6643 12.7734C15.0914 12.6172 13.4065 12.3516 11.2502 12.5391C11.2254 12.5727 11.2042 12.5975 11.1834 12.6217C11.1034 12.7151 11.0295 12.8013 10.7815 13.3594C10.6252 15 10.6075 17.7615 12.0705 19.8828C11.6408 19.9089 10.7033 20.1641 10.7033 20.9766C10.7033 21.0449 10.6985 21.1464 10.6924 21.2763C10.6077 23.0749 10.2667 30.3124 18.8281 30.3125V34.2188C18.8281 34.866 19.3528 35.3906 20 35.3906C20.6472 35.3906 21.1719 34.866 21.1719 34.2188V30.3125L21.1721 30.3125Z" fill="#282633"/>
<path d="M22.0703 11.6016C22.0703 13.5156 20.2344 15.5859 20 15.5859C19.7656 15.5859 17.9297 13.5156 17.9297 11.6016C17.9297 9.6875 19.7656 7.46094 20 7.46094C20.2344 7.46094 22.0703 9.6875 22.0703 11.6016Z" fill="#DB7A35"/>
<path d="M25.5107 19.137C24.1573 20.4904 21.3952 20.6562 21.2294 20.4904C21.0637 20.3247 21.2294 17.5626 22.5829 16.2091C23.9363 14.8557 26.8089 14.5795 26.9747 14.7452C27.1404 14.9109 26.8642 17.7835 25.5107 19.137Z" fill="#DB7A35"/>
<path d="M25.5107 26.5589C24.1573 27.9123 21.3952 28.078 21.2294 27.9123C21.0637 27.7466 21.2294 24.9844 22.5829 23.631C23.9363 22.2775 26.8089 22.0013 26.9747 22.1671C27.1404 22.3328 26.8642 25.2054 25.5107 26.5589Z" fill="#DB7A35"/>
<path d="M14.4902 19.137C15.8437 20.4904 18.6058 20.6562 18.7715 20.4904C18.9373 20.3247 18.7715 17.5626 17.4181 16.2091C16.0647 14.8557 13.192 14.5795 13.0263 14.7452C12.8606 14.9109 13.1368 17.7835 14.4902 19.137Z" fill="#DB7A35"/>
<path d="M14.4902 26.5589C15.8437 27.9123 18.6058 28.078 18.7715 27.9123C18.9373 27.7466 18.7715 24.9844 17.4181 23.631C16.0647 22.2775 13.192 22.0013 13.0263 22.1671C12.8606 22.3328 13.1368 25.2054 14.4902 26.5589Z" fill="#DB7A35"/>
</svg>
