<svg width="40" height="40" viewBox="0 0 40 40" fill="none" xmlns="http://www.w3.org/2000/svg">
<circle cx="20" cy="20" r="18.8281" stroke="#282633" stroke-width="2.34375"/>
<path d="M15.665 13.9456H28.3213V30.0002C28.3213 30.7122 27.7442 31.2893 27.0322 31.2893H15.665V13.9456Z" fill="#DB7A35" stroke="#282633" stroke-width="1.32813"/>
<path d="M14.3369 13.9456V31.0245L12.5527 30.4144L12.3378 31.0428L12.5527 30.4144C12.0311 30.2361 11.6807 29.7459 11.6807 29.1947V13.9456L14.3369 13.9456Z" fill="#DB7A35" stroke="#282633" stroke-width="1.32813"/>
<path d="M13.6729 14.6096H15.001V30.6252L13.6729 30.0958V14.6096Z" fill="#DB7A35"/>
<path d="M14.7666 10.6643L16.0166 13.2424H27.1885L25.9385 10.6643H14.7666Z" fill="#DB7A35"/>
<path d="M14.7666 10.6643L16.0166 13.2424H27.1885L25.9385 10.6643H14.7666Z" stroke="#282633"/>
<path d="M25.626 9.96118H26.29V9.29712V8.59399C26.29 7.88206 25.7129 7.30493 25.001 7.30493H14.9229C14.2109 7.30493 13.6338 7.88206 13.6338 8.59399V9.29712V9.96118H14.2979H25.626Z" fill="#DB7A35" stroke="#282633" stroke-width="1.32813"/>
<path d="M12.7862 13.3752H14.5875C14.5931 13.3752 14.5969 13.3695 14.5946 13.3643L13.6739 11.2669C13.6712 11.2606 13.6622 11.2607 13.6596 11.267L12.779 13.3644C12.7768 13.3696 12.7806 13.3752 12.7862 13.3752Z" fill="#DB7A35"/>
<line x1="26.185" y1="9.79886" x2="28.1381" y2="13.7051" stroke="#282633" stroke-width="1.25"/>
<line x1="13.7981" y1="10.172" x2="15.7512" y2="14.0783" stroke="#282633" stroke-width="1.32813"/>
<line x1="13.5661" y1="10.058" x2="11.6911" y2="13.8861" stroke="#282633" stroke-width="1.32813"/>
<mask id="path-11-inside-1_1084_103" fill="white">
<path fill-rule="evenodd" clip-rule="evenodd" d="M25.3961 23.2523C25.3961 23.2523 25.3961 23.2523 25.3961 23.2523C25.3961 25.1522 23.856 26.6923 21.9561 26.6923C20.0563 26.6923 18.5161 25.1522 18.5161 23.2523C18.5161 23.2523 18.5161 23.2523 18.5161 23.2523C18.5161 22.8485 18.5857 22.4609 18.7135 22.1009C19.1101 20.8496 20.1176 19.2472 21.8598 17.0464C21.9087 16.9847 22.0038 16.9845 22.0529 17.046C23.8324 19.2741 24.8394 20.8976 25.2193 22.1605C25.334 22.5036 25.3961 22.8707 25.3961 23.2523Z"/>
</mask>
<path d="M25.3961 23.2523L26.647 23.2523L26.647 23.2523L25.3961 23.2523ZM18.5161 23.2523L19.767 23.2523L19.767 23.2523L18.5161 23.2523ZM18.7135 22.1009L19.8923 22.5195L19.8995 22.4992L19.906 22.4788L18.7135 22.1009ZM21.8598 17.0464L20.879 16.27L21.8598 17.0464ZM22.0529 17.046L21.0755 17.8267L21.0755 17.8267L22.0529 17.046ZM25.2193 22.1605L24.0214 22.5208L24.0269 22.5392L24.0329 22.5573L25.2193 22.1605ZM24.1452 23.2523C24.1452 23.2523 24.1452 23.2523 24.1452 23.2523C24.1452 23.2523 24.1452 23.2523 24.1452 23.2523C24.1452 23.2523 24.1452 23.2523 24.1452 23.2523C24.1452 23.2523 24.1452 23.2523 24.1452 23.2523C24.1452 23.2523 24.1452 23.2523 24.1452 23.2523C24.1452 23.2523 24.1452 23.2523 24.1452 23.2523C24.1452 23.2523 24.1452 23.2523 24.1452 23.2523C24.1452 23.2523 24.1452 23.2523 24.1452 23.2523C24.1452 23.2523 24.1452 23.2523 24.1452 23.2523C24.1452 23.2523 24.1452 23.2523 24.1452 23.2523C24.1452 23.2523 24.1452 23.2523 24.1452 23.2523C24.1452 23.2523 24.1452 23.2523 24.1452 23.2523C24.1452 23.2523 24.1452 23.2523 24.1452 23.2523C24.1452 23.2523 24.1452 23.2523 24.1452 23.2523C24.1452 23.2523 24.1452 23.2523 24.1452 23.2523C24.1452 23.2523 24.1452 23.2523 24.1452 23.2523C24.1452 23.2523 24.1452 23.2523 24.1452 23.2523C24.1452 23.2523 24.1452 23.2523 24.1452 23.2523C24.1452 23.2523 24.1452 23.2523 24.1452 23.2523C24.1452 23.2523 24.1452 23.2523 24.1452 23.2523C24.1452 23.2523 24.1452 23.2523 24.1452 23.2523C24.1452 23.2523 24.1452 23.2523 24.1452 23.2523C24.1452 23.2523 24.1452 23.2523 24.1452 23.2523C24.1452 23.2523 24.1452 23.2523 24.1452 23.2523C24.1452 23.2523 24.1452 23.2523 24.1452 23.2523C24.1452 23.2523 24.1452 23.2523 24.1452 23.2523C24.1452 23.2523 24.1452 23.2523 24.1452 23.2523C24.1452 23.2523 24.1452 23.2523 24.1452 23.2523C24.1452 23.2523 24.1452 23.2523 24.1452 23.2523C24.1452 23.2523 24.1452 23.2523 24.1452 23.2523C24.1452 23.2523 24.1452 23.2523 24.1452 23.2523C24.1452 23.2523 24.1452 23.2523 24.1452 23.2523C24.1452 23.2523 24.1452 23.2523 24.1452 23.2523C24.1452 23.2523 24.1452 23.2523 24.1452 23.2523C24.1452 23.2523 24.1452 23.2523 24.1452 23.2523C24.1452 23.2523 24.1452 23.2523 24.1452 23.2523C24.1452 23.2523 24.1452 23.2523 24.1452 23.2523C24.1452 23.2523 24.1452 23.2523 24.1452 23.2523C24.1452 23.2523 24.1452 23.2523 24.1452 23.2523C24.1452 23.2523 24.1452 23.2523 24.1452 23.2523C24.1452 23.2523 24.1452 23.2523 24.1452 23.2523C24.1452 23.2523 24.1452 23.2523 24.1452 23.2523C24.1452 23.2523 24.1452 23.2523 24.1452 23.2523C24.1452 23.2523 24.1452 23.2523 24.1452 23.2523C24.1452 23.2523 24.1452 23.2523 24.1452 23.2523C24.1452 23.2523 24.1452 23.2523 24.1452 23.2523C24.1452 23.2523 24.1452 23.2523 24.1452 23.2523C24.1452 23.2523 24.1452 23.2523 24.1452 23.2523C24.1452 23.2523 24.1452 23.2523 24.1452 23.2523C24.1452 23.2523 24.1452 23.2523 24.1452 23.2523C24.1452 23.2523 24.1452 23.2523 24.1452 23.2523C24.1452 23.2523 24.1452 23.2523 24.1452 23.2523C24.1452 23.2523 24.1452 23.2523 24.1452 23.2523C24.1452 23.2523 24.1452 23.2523 24.1452 23.2523C24.1452 23.2523 24.1452 23.2523 24.1452 23.2523C24.1452 23.2523 24.1452 23.2523 24.1452 23.2523C24.1452 23.2523 24.1452 23.2523 24.1452 23.2523C24.1452 23.2523 24.1452 23.2523 24.1452 23.2523C24.1452 23.2523 24.1452 23.2523 24.1452 23.2523C24.1452 23.2523 24.1452 23.2523 24.1452 23.2523C24.1452 23.2523 24.1452 23.2523 24.1452 23.2523C24.1452 23.2523 24.1452 23.2523 24.1452 23.2523C24.1452 23.2523 24.1452 23.2523 24.1452 23.2523C24.1452 23.2523 24.1452 23.2523 24.1452 23.2523C24.1452 23.2523 24.1452 23.2523 24.1452 23.2523C24.1452 23.2523 24.1452 23.2523 24.1452 23.2523C24.1452 23.2523 24.1452 23.2523 24.1452 23.2523C24.1452 23.2523 24.1452 23.2523 24.1452 23.2523C24.1452 23.2523 24.1452 23.2523 24.1452 23.2523C24.1452 23.2523 24.1452 23.2523 24.1452 23.2523C24.1452 23.2523 24.1452 23.2523 24.1452 23.2523C24.1452 23.2523 24.1452 23.2523 24.1452 23.2523C24.1452 23.2523 24.1452 23.2523 24.1452 23.2523C24.1452 23.2523 24.1452 23.2523 24.1452 23.2523C24.1452 23.2523 24.1452 23.2523 24.1452 23.2523C24.1452 23.2523 24.1452 23.2523 24.1452 23.2523C24.1452 23.2523 24.1452 23.2523 24.1452 23.2523C24.1452 23.2523 24.1452 23.2523 24.1452 23.2523C24.1452 23.2523 24.1452 23.2523 24.1452 23.2523C24.1452 23.2523 24.1452 23.2523 24.1452 23.2523C24.1452 23.2523 24.1452 23.2523 24.1452 23.2523C24.1452 23.2523 24.1452 23.2523 24.1452 23.2523C24.1452 23.2523 24.1452 23.2523 24.1452 23.2523C24.1452 23.2523 24.1452 23.2523 24.1452 23.2523C24.1452 23.2523 24.1452 23.2523 24.1452 23.2523C24.1452 23.2523 24.1452 23.2523 24.1452 23.2523C24.1452 23.2523 24.1452 23.2523 24.1452 23.2523C24.1452 23.2523 24.1452 23.2523 24.1452 23.2523C24.1452 23.2523 24.1452 23.2523 24.1452 23.2523C24.1452 23.2523 24.1452 23.2523 24.1452 23.2523C24.1452 23.2523 24.1452 23.2523 24.1452 23.2523C24.1452 23.2523 24.1452 23.2523 24.1452 23.2523C24.1452 23.2523 24.1452 23.2523 24.1452 23.2523C24.1452 23.2523 24.1452 23.2523 24.1452 23.2523C24.1452 23.2523 24.1452 23.2523 24.1452 23.2523C24.1452 23.2523 24.1452 23.2523 24.1452 23.2523C24.1452 23.2523 24.1452 23.2523 24.1452 23.2523C24.1452 23.2523 24.1452 23.2523 24.1452 23.2523C24.1452 23.2523 24.1452 23.2523 24.1452 23.2523C24.1452 23.2523 24.1452 23.2523 24.1452 23.2523C24.1452 23.2523 24.1452 23.2523 24.1452 23.2523C24.1452 23.2523 24.1452 23.2523 24.1452 23.2523C24.1452 23.2523 24.1452 23.2523 24.1452 23.2523C24.1452 23.2523 24.1452 23.2523 24.1452 23.2523C24.1452 23.2523 24.1452 23.2523 24.1452 23.2523C24.1452 23.2523 24.1452 23.2523 24.1452 23.2523C24.1452 23.2523 24.1452 23.2523 24.1452 23.2523C24.1452 23.2523 24.1452 23.2523 24.1452 23.2523C24.1452 23.2523 24.1452 23.2523 24.1452 23.2523C24.1452 23.2523 24.1452 23.2523 24.1452 23.2523C24.1452 23.2523 24.1452 23.2523 24.1452 23.2523C24.1452 23.2523 24.1452 23.2523 24.1452 23.2523C24.1452 23.2523 24.1452 23.2523 24.1452 23.2523C24.1452 23.2523 24.1452 23.2523 24.1452 23.2523C24.1452 23.2523 24.1452 23.2523 24.1452 23.2523C24.1452 23.2523 24.1452 23.2523 24.1452 23.2523C24.1452 23.2523 24.1452 23.2523 24.1452 23.2523C24.1452 23.2523 24.1452 23.2523 24.1452 23.2523C24.1452 23.2523 24.1452 23.2523 24.1452 23.2523C24.1452 23.2523 24.1452 23.2523 24.1452 23.2523C24.1452 23.2523 24.1452 23.2523 24.1452 23.2523C24.1452 23.2523 24.1452 23.2523 24.1452 23.2523C24.1452 23.2523 24.1452 23.2523 24.1452 23.2523C24.1452 23.2523 24.1452 23.2523 24.1452 23.2523C24.1452 23.2523 24.1452 23.2523 24.1452 23.2523C24.1452 23.2523 24.1452 23.2523 24.1452 23.2523C24.1452 23.2523 24.1452 23.2523 24.1452 23.2523C24.1452 23.2523 24.1452 23.2523 24.1452 23.2523C24.1452 23.2523 24.1452 23.2523 24.1452 23.2523C24.1452 23.2523 24.1452 23.2523 24.1452 23.2523C24.1452 23.2523 24.1452 23.2523 24.1452 23.2523C24.1452 23.2523 24.1452 23.2523 24.1452 23.2523C24.1452 23.2523 24.1452 23.2523 24.1452 23.2523C24.1452 23.2523 24.1452 23.2523 24.1452 23.2523C24.1452 23.2523 24.1452 23.2523 24.1452 23.2523C24.1452 23.2523 24.1452 23.2523 24.1452 23.2523C24.1452 23.2523 24.1452 23.2523 24.1452 23.2523C24.1452 23.2523 24.1452 23.2523 24.1452 23.2523C24.1452 23.2523 24.1452 23.2523 24.1452 23.2523C24.1452 23.2523 24.1452 23.2523 24.1452 23.2523C24.1452 23.2523 24.1452 23.2523 24.1452 23.2523C24.1452 23.2523 24.1452 23.2523 24.1452 23.2523C24.1452 23.2523 24.1452 23.2523 24.1452 23.2523C24.1452 23.2523 24.1452 23.2523 24.1452 23.2523C24.1452 23.2523 24.1452 23.2523 24.1452 23.2523C24.1452 23.2523 24.1452 23.2523 24.1452 23.2523C24.1452 23.2523 24.1452 23.2523 24.1452 23.2523C24.1452 23.2523 24.1452 23.2523 24.1452 23.2523C24.1452 23.2523 24.1452 23.2523 24.1452 23.2523C24.1452 23.2523 24.1452 23.2523 24.1452 23.2523C24.1452 23.2523 24.1452 23.2523 24.1452 23.2523C24.1452 23.2523 24.1452 23.2523 24.1452 23.2523C24.1452 23.2523 24.1452 23.2523 24.1452 23.2523C24.1452 23.2523 24.1452 23.2523 24.1452 23.2523C24.1452 23.2523 24.1452 23.2523 24.1452 23.2523C24.1452 23.2523 24.1452 23.2523 24.1452 23.2523C24.1452 23.2523 24.1452 23.2523 24.1452 23.2523C24.1452 23.2523 24.1452 23.2523 24.1452 23.2523C24.1452 23.2523 24.1452 23.2523 24.1452 23.2523C24.1452 23.2523 24.1452 23.2523 24.1452 23.2523C24.1452 23.2523 24.1452 23.2523 24.1452 23.2523C24.1452 23.2523 24.1452 23.2523 24.1452 23.2523C24.1452 23.2523 24.1452 23.2523 24.1452 23.2523C24.1452 23.2523 24.1452 23.2523 24.1452 23.2523C24.1452 23.2523 24.1452 23.2523 24.1452 23.2523C24.1452 23.2523 24.1452 23.2523 24.1452 23.2523C24.1452 23.2523 24.1452 23.2523 24.1452 23.2523C24.1452 23.2523 24.1452 23.2523 24.1452 23.2523C24.1452 23.2523 24.1452 23.2523 24.1452 23.2523C24.1452 23.2523 24.1452 23.2523 24.1452 23.2523C24.1452 23.2523 24.1452 23.2523 24.1452 23.2523C24.1452 23.2523 24.1452 23.2523 24.1452 23.2523C24.1452 23.2523 24.1452 23.2523 24.1452 23.2523C24.1452 23.2523 24.1452 23.2523 24.1452 23.2523C24.1452 23.2523 24.1452 23.2523 24.1452 23.2523C24.1452 23.2523 24.1452 23.2523 24.1452 23.2523C24.1452 23.2523 24.1452 23.2523 24.1452 23.2523C24.1452 23.2523 24.1452 23.2523 24.1452 23.2523C24.1452 23.2523 24.1452 23.2523 24.1452 23.2523C24.1452 23.2523 24.1452 23.2523 24.1452 23.2523C24.1452 23.2523 24.1452 23.2523 24.1452 23.2523C24.1452 23.2523 24.1452 23.2523 24.1452 23.2523C24.1452 23.2523 24.1452 23.2523 24.1452 23.2523C24.1452 23.2523 24.1452 23.2523 24.1452 23.2523C24.1452 23.2523 24.1452 23.2523 24.1452 23.2523C24.1452 23.2523 24.1452 23.2523 24.1452 23.2523C24.1452 23.2523 24.1452 23.2523 24.1452 23.2523C24.1452 23.2523 24.1452 23.2523 24.1452 23.2523C24.1452 23.2523 24.1452 23.2523 24.1452 23.2523C24.1452 23.2523 24.1452 23.2523 24.1452 23.2523C24.1452 23.2523 24.1452 23.2523 24.1452 23.2523C24.1452 23.2523 24.1452 23.2523 24.1452 23.2523C24.1452 23.2523 24.1452 23.2523 24.1452 23.2523C24.1452 23.2523 24.1452 23.2523 24.1452 23.2523C24.1452 23.2523 24.1452 23.2523 24.1452 23.2523C24.1452 23.2523 24.1452 23.2523 24.1452 23.2523C24.1452 23.2523 24.1452 23.2523 24.1452 23.2523C24.1452 23.2523 24.1452 23.2523 24.1452 23.2523C24.1452 23.2523 24.1452 23.2523 24.1452 23.2523C24.1452 23.2523 24.1452 23.2523 24.1452 23.2523C24.1452 23.2523 24.1452 23.2523 24.1452 23.2523C24.1452 23.2523 24.1452 23.2523 24.1452 23.2523C24.1452 23.2523 24.1452 23.2523 24.1452 23.2523C24.1452 23.2523 24.1452 23.2523 24.1452 23.2523C24.1452 23.2523 24.1452 23.2523 24.1452 23.2523C24.1452 23.2523 24.1452 23.2523 24.1452 23.2523C24.1452 23.2523 24.1452 23.2523 24.1452 23.2523C24.1452 23.2523 24.1452 23.2523 24.1452 23.2523C24.1452 23.2523 24.1452 23.2523 24.1452 23.2523C24.1452 23.2523 24.1452 23.2523 24.1452 23.2523C24.1452 23.2523 24.1452 23.2523 24.1452 23.2523C24.1452 23.2523 24.1452 23.2523 24.1452 23.2523C24.1452 23.2523 24.1452 23.2523 24.1452 23.2523C24.1452 23.2523 24.1452 23.2523 24.1452 23.2523C24.1452 23.2523 24.1452 23.2523 24.1452 23.2523C24.1452 23.2523 24.1452 23.2523 24.1452 23.2523C24.1452 23.2523 24.1452 23.2523 24.1452 23.2523C24.1452 23.2523 24.1452 23.2523 24.1452 23.2523C24.1452 23.2523 24.1452 23.2523 24.1452 23.2523C24.1452 23.2523 24.1452 23.2523 24.1452 23.2523C24.1452 23.2523 24.1452 23.2523 24.1452 23.2523C24.1452 23.2523 24.1452 23.2523 24.1452 23.2523C24.1452 23.2523 24.1452 23.2523 24.1452 23.2523C24.1452 23.2523 24.1452 23.2523 24.1452 23.2523C24.1452 23.2523 24.1452 23.2523 24.1452 23.2523C24.1452 23.2523 24.1452 23.2523 24.1452 23.2523C24.1452 23.2523 24.1452 23.2523 24.1452 23.2523C24.1452 23.2523 24.1452 23.2523 24.1452 23.2523C24.1452 23.2523 24.1452 23.2523 24.1452 23.2523C24.1452 23.2523 24.1452 23.2523 24.1452 23.2523C24.1452 23.2523 24.1452 23.2523 24.1452 23.2523C24.1452 23.2523 24.1452 23.2523 24.1452 23.2523C24.1452 23.2523 24.1452 23.2523 24.1452 23.2523C24.1452 23.2523 24.1452 23.2523 24.1452 23.2523C24.1452 23.2523 24.1452 23.2523 24.1452 23.2523C24.1452 23.2523 24.1452 23.2523 24.1452 23.2523C24.1452 23.2523 24.1452 23.2523 24.1452 23.2523C24.1452 23.2523 24.1452 23.2523 24.1452 23.2523C24.1452 23.2523 24.1452 23.2523 24.1452 23.2523C24.1452 23.2523 24.1452 23.2523 24.1452 23.2523C24.1452 23.2523 24.1452 23.2523 24.1452 23.2523C24.1452 23.2523 24.1452 23.2523 24.1452 23.2523C24.1452 23.2523 24.1452 23.2523 24.1452 23.2523C24.1452 23.2523 24.1452 23.2523 24.1452 23.2523C24.1452 23.2523 24.1452 23.2523 24.1452 23.2523C24.1452 23.2523 24.1452 23.2523 24.1452 23.2523C24.1452 23.2523 24.1452 23.2523 24.1452 23.2523C24.1452 23.2523 24.1452 23.2523 24.1452 23.2523C24.1452 23.2523 24.1452 23.2523 24.1452 23.2523C24.1452 23.2523 24.1452 23.2523 24.1452 23.2523C24.1452 23.2523 24.1452 23.2523 24.1452 23.2523C24.1452 23.2523 24.1452 23.2523 24.1452 23.2523C24.1452 23.2523 24.1452 23.2523 24.1452 23.2523C24.1452 23.2523 24.1452 23.2523 24.1452 23.2523C24.1452 23.2523 24.1452 23.2523 24.1452 23.2523C24.1452 23.2523 24.1452 23.2523 24.1452 23.2523C24.1452 23.2523 24.1452 23.2523 24.1452 23.2523C24.1452 23.2523 24.1452 23.2523 24.1452 23.2523C24.1452 23.2523 24.1452 23.2523 24.1452 23.2523C24.1452 23.2523 24.1452 23.2523 24.1452 23.2523C24.1452 23.2523 24.1452 23.2523 24.1452 23.2523C24.1452 23.2523 24.1452 23.2523 24.1452 23.2523C24.1452 23.2523 24.1452 23.2523 24.1452 23.2523C24.1452 23.2523 24.1452 23.2523 24.1452 23.2523C24.1452 23.2523 24.1452 23.2523 24.1452 23.2523C24.1452 23.2523 24.1452 23.2523 24.1452 23.2523C24.1452 23.2523 24.1452 23.2523 24.1452 23.2523C24.1452 23.2523 24.1452 23.2523 24.1452 23.2523C24.1452 23.2523 24.1452 23.2523 24.1452 23.2523C24.1452 23.2523 24.1452 23.2523 24.1452 23.2523C24.1452 23.2523 24.1452 23.2523 24.1452 23.2523C24.1452 23.2523 24.1452 23.2523 24.1452 23.2523C24.1452 23.2523 24.1452 23.2523 24.1452 23.2523C24.1452 23.2523 24.1452 23.2523 24.1452 23.2523C24.1452 23.2523 24.1452 23.2523 24.1452 23.2523C24.1452 23.2523 24.1452 23.2523 24.1452 23.2523C24.1452 23.2523 24.1452 23.2523 24.1452 23.2523C24.1452 23.2523 24.1452 23.2523 24.1452 23.2523C24.1452 23.2523 24.1452 23.2523 24.1452 23.2523C24.1452 23.2523 24.1452 23.2523 24.1452 23.2523C24.1452 23.2523 24.1452 23.2523 24.1452 23.2523C24.1452 23.2523 24.1452 23.2523 24.1452 23.2523C24.1452 23.2523 24.1452 23.2523 24.1452 23.2523C24.1452 23.2523 24.1452 23.2523 24.1452 23.2523C24.1452 23.2523 24.1452 23.2523 24.1452 23.2523C24.1452 23.2523 24.1452 23.2523 24.1452 23.2523C24.1452 23.2523 24.1452 23.2523 24.1452 23.2523C24.1452 23.2523 24.1452 23.2523 24.1452 23.2523C24.1452 23.2523 24.1452 23.2523 24.1452 23.2523C24.1452 23.2523 24.1452 23.2523 24.1452 23.2523C24.1452 23.2523 24.1452 23.2523 24.1452 23.2523C24.1452 23.2523 24.1452 23.2523 24.1452 23.2523C24.1452 23.2523 24.1452 23.2523 24.1452 23.2523C24.1452 23.2523 24.1452 23.2523 24.1452 23.2523C24.1452 23.2523 24.1452 23.2523 24.1452 23.2523C24.1452 23.2523 24.1452 23.2523 24.1452 23.2523C24.1452 23.2523 24.1452 23.2523 24.1452 23.2523C24.1452 23.2523 24.1452 23.2523 24.1452 23.2523C24.1452 23.2523 24.1452 23.2523 24.1452 23.2523C24.1452 23.2523 24.1452 23.2523 24.1452 23.2523C24.1452 23.2523 24.1452 23.2523 24.1452 23.2523C24.1452 23.2523 24.1452 23.2523 24.1452 23.2523C24.1452 23.2523 24.1452 23.2523 24.1452 23.2523C24.1452 23.2523 24.1452 23.2523 24.1452 23.2523C24.1452 23.2523 24.1452 23.2523 24.1452 23.2523C24.1452 23.2523 24.1452 23.2523 24.1452 23.2523C24.1452 23.2523 24.1452 23.2523 24.1452 23.2523C24.1452 23.2523 24.1452 23.2523 24.1452 23.2523C24.1452 23.2523 24.1452 23.2523 24.1452 23.2523C24.1452 23.2523 24.1452 23.2523 24.1452 23.2523C24.1452 23.2523 24.1452 23.2523 24.1452 23.2523C24.1452 23.2523 24.1452 23.2523 24.1452 23.2523C24.1452 23.2523 24.1452 23.2523 24.1452 23.2523C24.1452 23.2523 24.1452 23.2523 24.1452 23.2523C24.1452 23.2523 24.1452 23.2523 24.1452 23.2523C24.1452 23.2523 24.1452 23.2523 24.1452 23.2523C24.1452 23.2523 24.1452 23.2523 24.1452 23.2523C24.1452 23.2523 24.1452 23.2523 24.1452 23.2523C24.1452 23.2523 24.1452 23.2523 24.1452 23.2523C24.1452 23.2523 24.1452 23.2523 24.1452 23.2523C24.1452 23.2523 24.1452 23.2523 24.1452 23.2523C24.1452 23.2523 24.1452 23.2523 24.1452 23.2523C24.1452 23.2523 24.1452 23.2523 24.1452 23.2523C24.1452 23.2523 24.1452 23.2523 24.1452 23.2523C24.1452 23.2523 24.1452 23.2523 24.1452 23.2523C24.1452 23.2523 24.1452 23.2523 24.1452 23.2523C24.1452 23.2523 24.1452 23.2523 24.1452 23.2523C24.1452 23.2523 24.1452 23.2523 24.1452 23.2523C24.1452 23.2523 24.1452 23.2523 24.1452 23.2523C24.1452 23.2523 24.1452 23.2523 24.1452 23.2523C24.1452 23.2523 24.1452 23.2523 24.1452 23.2523C24.1452 23.2523 24.1452 23.2523 24.1452 23.2523C24.1452 23.2523 24.1452 23.2523 24.1452 23.2523C24.1452 23.2523 24.1452 23.2523 24.1452 23.2523C24.1452 23.2523 24.1452 23.2523 24.1452 23.2523C24.1452 23.2523 24.1452 23.2523 24.1452 23.2523C24.1452 23.2523 24.1452 23.2523 24.1452 23.2523C24.1452 23.2523 24.1452 23.2523 24.1452 23.2523C24.1452 23.2523 24.1452 23.2523 24.1452 23.2523C24.1452 23.2523 24.1452 23.2523 24.1452 23.2523C24.1452 23.2523 24.1452 23.2523 24.1452 23.2523C24.1452 23.2523 24.1452 23.2523 24.1452 23.2523C24.1452 23.2523 24.1452 23.2523 24.1452 23.2523C24.1452 23.2523 24.1452 23.2523 24.1452 23.2523C24.1452 23.2523 24.1452 23.2523 24.1452 23.2523C24.1452 23.2523 24.1452 23.2523 24.1452 23.2523C24.1452 23.2523 24.1452 23.2523 24.1452 23.2523C24.1452 23.2523 24.1452 23.2523 24.1452 23.2523C24.1452 23.2523 24.1452 23.2523 24.1452 23.2523C24.1452 23.2523 24.1452 23.2523 24.1452 23.2523C24.1452 23.2523 24.1452 23.2523 24.1452 23.2523C24.1452 23.2523 24.1452 23.2523 24.1452 23.2523C24.1452 23.2523 24.1452 23.2523 24.1452 23.2523C24.1452 23.2523 24.1452 23.2523 24.1452 23.2523C24.1452 23.2523 24.1452 23.2523 24.1452 23.2523C24.1452 23.2523 24.1452 23.2523 24.1452 23.2523C24.1452 23.2523 24.1452 23.2523 24.1452 23.2523C24.1452 23.2523 24.1452 23.2523 24.1452 23.2523C24.1452 23.2523 24.1452 23.2523 24.1452 23.2523C24.1452 23.2523 24.1452 23.2523 24.1452 23.2523C24.1452 23.2523 24.1452 23.2523 24.1452 23.2523C24.1452 23.2523 24.1452 23.2523 24.1452 23.2523C24.1452 23.2523 24.1452 23.2523 24.1452 23.2523C24.1452 23.2523 24.1452 23.2523 24.1452 23.2523C24.1452 23.2523 24.1452 23.2523 24.1452 23.2523C24.1452 23.2523 24.1452 23.2523 24.1452 23.2523C24.1452 23.2523 24.1452 23.2523 24.1452 23.2523C24.1452 23.2523 24.1452 23.2523 24.1452 23.2523C24.1452 23.2523 24.1452 23.2523 24.1452 23.2523C24.1452 23.2523 24.1452 23.2523 24.1452 23.2523C24.1452 23.2523 24.1452 23.2523 24.1452 23.2523C24.1452 23.2523 24.1452 23.2523 24.1452 23.2523C24.1452 23.2523 24.1452 23.2523 24.1452 23.2523C24.1452 23.2523 24.1452 23.2523 24.1452 23.2523C24.1452 23.2523 24.1452 23.2523 24.1452 23.2523C24.1452 23.2523 24.1452 23.2523 24.1452 23.2523C24.1452 23.2523 24.1452 23.2523 24.1452 23.2523C24.1452 23.2523 24.1452 23.2523 24.1452 23.2523C24.1452 23.2523 24.1452 23.2523 24.1452 23.2523C24.1452 23.2523 24.1452 23.2523 24.1452 23.2523C24.1452 23.2523 24.1452 23.2523 24.1452 23.2523C24.1452 23.2523 24.1452 23.2523 24.1452 23.2523C24.1452 23.2523 24.1452 23.2523 24.1452 23.2523C24.1452 23.2523 24.1452 23.2523 24.1452 23.2523C24.1452 23.2523 24.1452 23.2523 24.1452 23.2523C24.1452 23.2523 24.1452 23.2523 24.1452 23.2523C24.1452 23.2523 24.1452 23.2523 24.1452 23.2523C24.1452 23.2523 24.1452 23.2523 24.1452 23.2523C24.1452 23.2523 24.1452 23.2523 24.1452 23.2523C24.1452 23.2523 24.1452 23.2523 24.1452 23.2523C24.1452 23.2523 24.1452 23.2523 24.1452 23.2523C24.1452 23.2523 24.1452 23.2523 24.1452 23.2523C24.1452 23.2523 24.1452 23.2523 24.1452 23.2523C24.1452 23.2523 24.1452 23.2523 24.1452 23.2523C24.1452 23.2523 24.1452 23.2523 24.1452 23.2523C24.1452 23.2523 24.1452 23.2523 24.1452 23.2523C24.1452 23.2523 24.1452 23.2523 24.1452 23.2523C24.1452 23.2523 24.1452 23.2523 24.1452 23.2523C24.1452 23.2523 24.1452 23.2523 24.1452 23.2523C24.1452 23.2523 24.1452 23.2523 24.1452 23.2523C24.1452 23.2523 24.1452 23.2523 24.1452 23.2523C24.1452 23.2523 24.1452 23.2523 24.1452 23.2523C24.1452 23.2523 24.1452 23.2523 24.1452 23.2523C24.1452 23.2523 24.1452 23.2523 24.1452 23.2523C24.1452 23.2523 24.1452 23.2523 24.1452 23.2523C24.1452 23.2523 24.1452 23.2523 24.1452 23.2523C24.1452 23.2523 24.1452 23.2523 24.1452 23.2523C24.1452 23.2523 24.1452 23.2523 24.1452 23.2523C24.1452 23.2523 24.1452 23.2523 24.1452 23.2523C24.1452 23.2523 24.1452 23.2523 24.1452 23.2523C24.1452 23.2523 24.1452 23.2523 24.1452 23.2523C24.1452 23.2523 24.1452 23.2523 24.1452 23.2523C24.1452 23.2523 24.1452 23.2523 24.1452 23.2523C24.1452 23.2523 24.1452 23.2523 24.1452 23.2523C24.1452 23.2523 24.1452 23.2523 24.1452 23.2523C24.1452 23.2523 24.1452 23.2523 24.1452 23.2523C24.1452 23.2523 24.1452 23.2523 24.1452 23.2523C24.1452 23.2523 24.1452 23.2523 24.1452 23.2523C24.1452 23.2523 24.1452 23.2523 24.1452 23.2523C24.1452 23.2523 24.1452 23.2523 24.1452 23.2523C24.1452 23.2523 24.1452 23.2523 24.1452 23.2523C24.1452 23.2523 24.1452 23.2523 24.1452 23.2523C24.1452 23.2523 24.1452 23.2523 24.1452 23.2523C24.1452 23.2523 24.1452 23.2523 24.1452 23.2523C24.1452 23.2523 24.1452 23.2523 24.1452 23.2523C24.1452 23.2523 24.1452 23.2523 24.1452 23.2523C24.1452 23.2523 24.1452 23.2523 24.1452 23.2523C24.1452 23.2523 24.1452 23.2523 24.1452 23.2523C24.1452 23.2523 24.1452 23.2523 24.1452 23.2523C24.1452 23.2523 24.1452 23.2523 24.1452 23.2523C24.1452 23.2523 24.1452 23.2523 24.1452 23.2523C24.1452 23.2523 24.1452 23.2523 24.1452 23.2523C24.1452 23.2523 24.1452 23.2523 24.1452 23.2523C24.1452 23.2523 24.1452 23.2523 24.1452 23.2523C24.1452 23.2523 24.1452 23.2523 24.1452 23.2523C24.1452 23.2523 24.1452 23.2523 24.1452 23.2523C24.1452 23.2523 24.1452 23.2523 24.1452 23.2523C24.1452 23.2523 24.1452 23.2523 24.1452 23.2523C24.1452 23.2523 24.1452 23.2523 24.1452 23.2523C24.1452 23.2523 24.1452 23.2523 24.1452 23.2523C24.1452 23.2523 24.1452 23.2523 24.1452 23.2523C24.1452 23.2523 24.1452 23.2523 24.1452 23.2523C24.1452 23.2523 24.1452 23.2523 24.1452 23.2523C24.1452 23.2523 24.1452 23.2523 24.1452 23.2523C24.1452 23.2523 24.1452 23.2523 24.1452 23.2523C24.1452 23.2523 24.1452 23.2523 24.1452 23.2523C24.1452 23.2523 24.1452 23.2523 24.1452 23.2523C24.1452 23.2523 24.1452 23.2523 24.1452 23.2523C24.1452 23.2523 24.1452 23.2523 24.1452 23.2523C24.1452 23.2523 24.1452 23.2523 24.1452 23.2523C24.1452 23.2523 24.1452 23.2523 24.1452 23.2523C24.1452 23.2523 24.1452 23.2523 24.1452 23.2523C24.1452 23.2523 24.1452 23.2523 24.1452 23.2523C24.1452 23.2523 24.1452 23.2523 24.1452 23.2523C24.1452 23.2523 24.1452 23.2523 24.1452 23.2523C24.1452 23.2523 24.1452 23.2523 24.1452 23.2523C24.1452 23.2523 24.1452 23.2523 24.1452 23.2523C24.1452 23.2523 24.1452 23.2523 24.1452 23.2523C24.1452 23.2523 24.1452 23.2523 24.1452 23.2523C24.1452 23.2523 24.1452 23.2523 24.1452 23.2523C24.1452 23.2523 24.1452 23.2523 24.1452 23.2523C24.1452 23.2523 24.1452 23.2523 24.1452 23.2523C24.1452 23.2523 24.1452 23.2523 24.1452 23.2523C24.1452 23.2523 24.1452 23.2523 24.1452 23.2523C24.1452 23.2523 24.1452 23.2523 24.1452 23.2523C24.1452 23.2523 24.1452 23.2523 24.1452 23.2523C24.1452 23.2523 24.1452 23.2523 24.1452 23.2523C24.1452 23.2523 24.1452 23.2523 24.1452 23.2523C24.1452 23.2523 24.1452 23.2523 24.1452 23.2523C24.1452 23.2523 24.1452 23.2523 24.1452 23.2523C24.1452 23.2523 24.1452 23.2523 24.1452 23.2523C24.1452 23.2523 24.1452 23.2523 24.1452 23.2523C24.1452 23.2523 24.1452 23.2523 24.1452 23.2523C24.1452 23.2523 24.1452 23.2523 24.1452 23.2523C24.1452 23.2523 24.1452 23.2523 24.1452 23.2523C24.1452 23.2523 24.1452 23.2523 24.1452 23.2523C24.1452 23.2523 24.1452 23.2523 24.1452 23.2523C24.1452 23.2523 24.1452 23.2523 24.1452 23.2523C24.1452 23.2523 24.1452 23.2523 24.1452 23.2523C24.1452 23.2523 24.1452 23.2523 24.1452 23.2523C24.1452 23.2523 24.1452 23.2523 24.1452 23.2523C24.1452 23.2523 24.1452 23.2523 24.1452 23.2523C24.1452 23.2523 24.1452 23.2523 24.1452 23.2523C24.1452 23.2523 24.1452 23.2523 24.1452 23.2523C24.1452 23.2523 24.1452 23.2523 24.1452 23.2523C24.1452 23.2523 24.1452 23.2523 24.1452 23.2523C24.1452 23.2523 24.1452 23.2523 24.1452 23.2523C24.1452 23.2523 24.1452 23.2523 24.1452 23.2523C24.1452 23.2523 24.1452 23.2523 24.1452 23.2523C24.1452 23.2523 24.1452 23.2523 24.1452 23.2523C24.1452 23.2523 24.1452 23.2523 24.1452 23.2523C24.1452 23.2523 24.1452 23.2523 24.1452 23.2523C24.1452 23.2523 24.1452 23.2523 24.1452 23.2523C24.1452 23.2523 24.1452 23.2523 24.1452 23.2523C24.1452 23.2523 24.1452 23.2523 24.1452 23.2523C24.1452 23.2523 24.1452 23.2523 24.1452 23.2523C24.1452 23.2523 24.1452 23.2523 24.1452 23.2523C24.1452 23.2523 24.1452 23.2523 24.1452 23.2523C24.1452 23.2523 24.1452 23.2523 24.1452 23.2523C24.1452 23.2523 24.1452 23.2523 24.1452 23.2523C24.1452 23.2523 24.1452 23.2523 24.1452 23.2523C24.1452 23.2523 24.1452 23.2523 24.1452 23.2523C24.1452 23.2523 24.1452 23.2523 24.1452 23.2523C24.1452 23.2523 24.1452 23.2523 24.1452 23.2523C24.1452 23.2523 24.1452 23.2523 24.1452 23.2523C24.1452 23.2523 24.1452 23.2523 24.1452 23.2523C24.1452 23.2523 24.1452 23.2523 24.1452 23.2523C24.1452 23.2523 24.1452 23.2523 24.1452 23.2523C24.1452 23.2523 24.1452 23.2523 24.1452 23.2523C24.1452 23.2523 24.1452 23.2523 24.1452 23.2523C24.1452 23.2523 24.1452 23.2523 24.1452 23.2523C24.1452 23.2523 24.1452 23.2523 24.1452 23.2523H26.647C26.647 23.2523 26.647 23.2523 26.647 23.2523C26.647 23.2523 26.647 23.2523 26.647 23.2523C26.647 23.2523 26.647 23.2523 26.647 23.2523C26.647 23.2523 26.647 23.2523 26.647 23.2523C26.647 23.2523 26.647 23.2523 26.647 23.2523C26.647 23.2523 26.647 23.2523 26.647 23.2523C26.647 23.2523 26.647 23.2523 26.647 23.2523C26.647 23.2523 26.647 23.2523 26.647 23.2523C26.647 23.2523 26.647 23.2523 26.647 23.2523C26.647 23.2523 26.647 23.2523 26.647 23.2523C26.647 23.2523 26.647 23.2523 26.647 23.2523C26.647 23.2523 26.647 23.2523 26.647 23.2523C26.647 23.2523 26.647 23.2523 26.647 23.2523C26.647 23.2523 26.647 23.2523 26.647 23.2523C26.647 23.2523 26.647 23.2523 26.647 23.2523C26.647 23.2523 26.647 23.2523 26.647 23.2523C26.647 23.2523 26.647 23.2523 26.647 23.2523C26.647 23.2523 26.647 23.2523 26.647 23.2523C26.647 23.2523 26.647 23.2523 26.647 23.2523C26.647 23.2523 26.647 23.2523 26.647 23.2523C26.647 23.2523 26.647 23.2523 26.647 23.2523C26.647 23.2523 26.647 23.2523 26.647 23.2523C26.647 23.2523 26.647 23.2523 26.647 23.2523C26.647 23.2523 26.647 23.2523 26.647 23.2523C26.647 23.2523 26.647 23.2523 26.647 23.2523C26.647 23.2523 26.647 23.2523 26.647 23.2523C26.647 23.2523 26.647 23.2523 26.647 23.2523C26.647 23.2523 26.647 23.2523 26.647 23.2523C26.647 23.2523 26.647 23.2523 26.647 23.2523C26.647 23.2523 26.647 23.2523 26.647 23.2523C26.647 23.2523 26.647 23.2523 26.647 23.2523C26.647 23.2523 26.647 23.2523 26.647 23.2523C26.647 23.2523 26.647 23.2523 26.647 23.2523C26.647 23.2523 26.647 23.2523 26.647 23.2523C26.647 23.2523 26.647 23.2523 26.647 23.2523C26.647 23.2523 26.647 23.2523 26.647 23.2523C26.647 23.2523 26.647 23.2523 26.647 23.2523C26.647 23.2523 26.647 23.2523 26.647 23.2523C26.647 23.2523 26.647 23.2523 26.647 23.2523C26.647 23.2523 26.647 23.2523 26.647 23.2523C26.647 23.2523 26.647 23.2523 26.647 23.2523C26.647 23.2523 26.647 23.2523 26.647 23.2523C26.647 23.2523 26.647 23.2523 26.647 23.2523C26.647 23.2523 26.647 23.2523 26.647 23.2523C26.647 23.2523 26.647 23.2523 26.647 23.2523C26.647 23.2523 26.647 23.2523 26.647 23.2523C26.647 23.2523 26.647 23.2523 26.647 23.2523C26.647 23.2523 26.647 23.2523 26.647 23.2523C26.647 23.2523 26.647 23.2523 26.647 23.2523C26.647 23.2523 26.647 23.2523 26.647 23.2523C26.647 23.2523 26.647 23.2523 26.647 23.2523C26.647 23.2523 26.647 23.2523 26.647 23.2523C26.647 23.2523 26.647 23.2523 26.647 23.2523C26.647 23.2523 26.647 23.2523 26.647 23.2523C26.647 23.2523 26.647 23.2523 26.647 23.2523C26.647 23.2523 26.647 23.2523 26.647 23.2523C26.647 23.2523 26.647 23.2523 26.647 23.2523C26.647 23.2523 26.647 23.2523 26.647 23.2523C26.647 23.2523 26.647 23.2523 26.647 23.2523C26.647 23.2523 26.647 23.2523 26.647 23.2523C26.647 23.2523 26.647 23.2523 26.647 23.2523C26.647 23.2523 26.647 23.2523 26.647 23.2523C26.647 23.2523 26.647 23.2523 26.647 23.2523C26.647 23.2523 26.647 23.2523 26.647 23.2523C26.647 23.2523 26.647 23.2523 26.647 23.2523C26.647 23.2523 26.647 23.2523 26.647 23.2523C26.647 23.2523 26.647 23.2523 26.647 23.2523C26.647 23.2523 26.647 23.2523 26.647 23.2523C26.647 23.2523 26.647 23.2523 26.647 23.2523C26.647 23.2523 26.647 23.2523 26.647 23.2523C26.647 23.2523 26.647 23.2523 26.647 23.2523C26.647 23.2523 26.647 23.2523 26.647 23.2523C26.647 23.2523 26.647 23.2523 26.647 23.2523C26.647 23.2523 26.647 23.2523 26.647 23.2523C26.647 23.2523 26.647 23.2523 26.647 23.2523C26.647 23.2523 26.647 23.2523 26.647 23.2523C26.647 23.2523 26.647 23.2523 26.647 23.2523C26.647 23.2523 26.647 23.2523 26.647 23.2523C26.647 23.2523 26.647 23.2523 26.647 23.2523C26.647 23.2523 26.647 23.2523 26.647 23.2523C26.647 23.2523 26.647 23.2523 26.647 23.2523C26.647 23.2523 26.647 23.2523 26.647 23.2523C26.647 23.2523 26.647 23.2523 26.647 23.2523C26.647 23.2523 26.647 23.2523 26.647 23.2523C26.647 23.2523 26.647 23.2523 26.647 23.2523C26.647 23.2523 26.647 23.2523 26.647 23.2523C26.647 23.2523 26.647 23.2523 26.647 23.2523C26.647 23.2523 26.647 23.2523 26.647 23.2523C26.647 23.2523 26.647 23.2523 26.647 23.2523C26.647 23.2523 26.647 23.2523 26.647 23.2523C26.647 23.2523 26.647 23.2523 26.647 23.2523C26.647 23.2523 26.647 23.2523 26.647 23.2523C26.647 23.2523 26.647 23.2523 26.647 23.2523C26.647 23.2523 26.647 23.2523 26.647 23.2523C26.647 23.2523 26.647 23.2523 26.647 23.2523C26.647 23.2523 26.647 23.2523 26.647 23.2523C26.647 23.2523 26.647 23.2523 26.647 23.2523C26.647 23.2523 26.647 23.2523 26.647 23.2523C26.647 23.2523 26.647 23.2523 26.647 23.2523C26.647 23.2523 26.647 23.2523 26.647 23.2523C26.647 23.2523 26.647 23.2523 26.647 23.2523C26.647 23.2523 26.647 23.2523 26.647 23.2523C26.647 23.2523 26.647 23.2523 26.647 23.2523C26.647 23.2523 26.647 23.2523 26.647 23.2523C26.647 23.2523 26.647 23.2523 26.647 23.2523C26.647 23.2523 26.647 23.2523 26.647 23.2523C26.647 23.2523 26.647 23.2523 26.647 23.2523C26.647 23.2523 26.647 23.2523 26.647 23.2523C26.647 23.2523 26.647 23.2523 26.647 23.2523C26.647 23.2523 26.647 23.2523 26.647 23.2523C26.647 23.2523 26.647 23.2523 26.647 23.2523C26.647 23.2523 26.647 23.2523 26.647 23.2523C26.647 23.2523 26.647 23.2523 26.647 23.2523C26.647 23.2523 26.647 23.2523 26.647 23.2523C26.647 23.2523 26.647 23.2523 26.647 23.2523C26.647 23.2523 26.647 23.2523 26.647 23.2523C26.647 23.2523 26.647 23.2523 26.647 23.2523C26.647 23.2523 26.647 23.2523 26.647 23.2523C26.647 23.2523 26.647 23.2523 26.647 23.2523C26.647 23.2523 26.647 23.2523 26.647 23.2523C26.647 23.2523 26.647 23.2523 26.647 23.2523C26.647 23.2523 26.647 23.2523 26.647 23.2523C26.647 23.2523 26.647 23.2523 26.647 23.2523C26.647 23.2523 26.647 23.2523 26.647 23.2523C26.647 23.2523 26.647 23.2523 26.647 23.2523C26.647 23.2523 26.647 23.2523 26.647 23.2523C26.647 23.2523 26.647 23.2523 26.647 23.2523C26.647 23.2523 26.647 23.2523 26.647 23.2523C26.647 23.2523 26.647 23.2523 26.647 23.2523C26.647 23.2523 26.647 23.2523 26.647 23.2523C26.647 23.2523 26.647 23.2523 26.647 23.2523C26.647 23.2523 26.647 23.2523 26.647 23.2523C26.647 23.2523 26.647 23.2523 26.647 23.2523C26.647 23.2523 26.647 23.2523 26.647 23.2523C26.647 23.2523 26.647 23.2523 26.647 23.2523C26.647 23.2523 26.647 23.2523 26.647 23.2523C26.647 23.2523 26.647 23.2523 26.647 23.2523C26.647 23.2523 26.647 23.2523 26.647 23.2523C26.647 23.2523 26.647 23.2523 26.647 23.2523C26.647 23.2523 26.647 23.2523 26.647 23.2523C26.647 23.2523 26.647 23.2523 26.647 23.2523C26.647 23.2523 26.647 23.2523 26.647 23.2523C26.647 23.2523 26.647 23.2523 26.647 23.2523C26.647 23.2523 26.647 23.2523 26.647 23.2523C26.647 23.2523 26.647 23.2523 26.647 23.2523C26.647 23.2523 26.647 23.2523 26.647 23.2523C26.647 23.2523 26.647 23.2523 26.647 23.2523C26.647 23.2523 26.647 23.2523 26.647 23.2523C26.647 23.2523 26.647 23.2523 26.647 23.2523C26.647 23.2523 26.647 23.2523 26.647 23.2523C26.647 23.2523 26.647 23.2523 26.647 23.2523C26.647 23.2523 26.647 23.2523 26.647 23.2523C26.647 23.2523 26.647 23.2523 26.647 23.2523C26.647 23.2523 26.647 23.2523 26.647 23.2523C26.647 23.2523 26.647 23.2523 26.647 23.2523C26.647 23.2523 26.647 23.2523 26.647 23.2523C26.647 23.2523 26.647 23.2523 26.647 23.2523C26.647 23.2523 26.647 23.2523 26.647 23.2523C26.647 23.2523 26.647 23.2523 26.647 23.2523C26.647 23.2523 26.647 23.2523 26.647 23.2523C26.647 23.2523 26.647 23.2523 26.647 23.2523C26.647 23.2523 26.647 23.2523 26.647 23.2523C26.647 23.2523 26.647 23.2523 26.647 23.2523C26.647 23.2523 26.647 23.2523 26.647 23.2523C26.647 23.2523 26.647 23.2523 26.647 23.2523C26.647 23.2523 26.647 23.2523 26.647 23.2523C26.647 23.2523 26.647 23.2523 26.647 23.2523C26.647 23.2523 26.647 23.2523 26.647 23.2523C26.647 23.2523 26.647 23.2523 26.647 23.2523C26.647 23.2523 26.647 23.2523 26.647 23.2523C26.647 23.2523 26.647 23.2523 26.647 23.2523C26.647 23.2523 26.647 23.2523 26.647 23.2523C26.647 23.2523 26.647 23.2523 26.647 23.2523C26.647 23.2523 26.647 23.2523 26.647 23.2523C26.647 23.2523 26.647 23.2523 26.647 23.2523C26.647 23.2523 26.647 23.2523 26.647 23.2523C26.647 23.2523 26.647 23.2523 26.647 23.2523C26.647 23.2523 26.647 23.2523 26.647 23.2523C26.647 23.2523 26.647 23.2523 26.647 23.2523C26.647 23.2523 26.647 23.2523 26.647 23.2523C26.647 23.2523 26.647 23.2523 26.647 23.2523C26.647 23.2523 26.647 23.2523 26.647 23.2523C26.647 23.2523 26.647 23.2523 26.647 23.2523C26.647 23.2523 26.647 23.2523 26.647 23.2523C26.647 23.2523 26.647 23.2523 26.647 23.2523C26.647 23.2523 26.647 23.2523 26.647 23.2523C26.647 23.2523 26.647 23.2523 26.647 23.2523C26.647 23.2523 26.647 23.2523 26.647 23.2523C26.647 23.2523 26.647 23.2523 26.647 23.2523C26.647 23.2523 26.647 23.2523 26.647 23.2523C26.647 23.2523 26.647 23.2523 26.647 23.2523C26.647 23.2523 26.647 23.2523 26.647 23.2523C26.647 23.2523 26.647 23.2523 26.647 23.2523C26.647 23.2523 26.647 23.2523 26.647 23.2523C26.647 23.2523 26.647 23.2523 26.647 23.2523C26.647 23.2523 26.647 23.2523 26.647 23.2523C26.647 23.2523 26.647 23.2523 26.647 23.2523C26.647 23.2523 26.647 23.2523 26.647 23.2523C26.647 23.2523 26.647 23.2523 26.647 23.2523C26.647 23.2523 26.647 23.2523 26.647 23.2523C26.647 23.2523 26.647 23.2523 26.647 23.2523C26.647 23.2523 26.647 23.2523 26.647 23.2523C26.647 23.2523 26.647 23.2523 26.647 23.2523C26.647 23.2523 26.647 23.2523 26.647 23.2523C26.647 23.2523 26.647 23.2523 26.647 23.2523C26.647 23.2523 26.647 23.2523 26.647 23.2523C26.647 23.2523 26.647 23.2523 26.647 23.2523C26.647 23.2523 26.647 23.2523 26.647 23.2523C26.647 23.2523 26.647 23.2523 26.647 23.2523C26.647 23.2523 26.647 23.2523 26.647 23.2523C26.647 23.2523 26.647 23.2523 26.647 23.2523C26.647 23.2523 26.647 23.2523 26.647 23.2523C26.647 23.2523 26.647 23.2523 26.647 23.2523C26.647 23.2523 26.647 23.2523 26.647 23.2523C26.647 23.2523 26.647 23.2523 26.647 23.2523C26.647 23.2523 26.647 23.2523 26.647 23.2523C26.647 23.2523 26.647 23.2523 26.647 23.2523C26.647 23.2523 26.647 23.2523 26.647 23.2523C26.647 23.2523 26.647 23.2523 26.647 23.2523C26.647 23.2523 26.647 23.2523 26.647 23.2523C26.647 23.2523 26.647 23.2523 26.647 23.2523C26.647 23.2523 26.647 23.2523 26.647 23.2523C26.647 23.2523 26.647 23.2523 26.647 23.2523C26.647 23.2523 26.647 23.2523 26.647 23.2523C26.647 23.2523 26.647 23.2523 26.647 23.2523C26.647 23.2523 26.647 23.2523 26.647 23.2523C26.647 23.2523 26.647 23.2523 26.647 23.2523C26.647 23.2523 26.647 23.2523 26.647 23.2523C26.647 23.2523 26.647 23.2523 26.647 23.2523C26.647 23.2523 26.647 23.2523 26.647 23.2523C26.647 23.2523 26.647 23.2523 26.647 23.2523C26.647 23.2523 26.647 23.2523 26.647 23.2523C26.647 23.2523 26.647 23.2523 26.647 23.2523C26.647 23.2523 26.647 23.2523 26.647 23.2523C26.647 23.2523 26.647 23.2523 26.647 23.2523C26.647 23.2523 26.647 23.2523 26.647 23.2523C26.647 23.2523 26.647 23.2523 26.647 23.2523C26.647 23.2523 26.647 23.2523 26.647 23.2523C26.647 23.2523 26.647 23.2523 26.647 23.2523C26.647 23.2523 26.647 23.2523 26.647 23.2523C26.647 23.2523 26.647 23.2523 26.647 23.2523C26.647 23.2523 26.647 23.2523 26.647 23.2523C26.647 23.2523 26.647 23.2523 26.647 23.2523C26.647 23.2523 26.647 23.2523 26.647 23.2523C26.647 23.2523 26.647 23.2523 26.647 23.2523C26.647 23.2523 26.647 23.2523 26.647 23.2523C26.647 23.2523 26.647 23.2523 26.647 23.2523C26.647 23.2523 26.647 23.2523 26.647 23.2523C26.647 23.2523 26.647 23.2523 26.647 23.2523C26.647 23.2523 26.647 23.2523 26.647 23.2523C26.647 23.2523 26.647 23.2523 26.647 23.2523C26.647 23.2523 26.647 23.2523 26.647 23.2523C26.647 23.2523 26.647 23.2523 26.647 23.2523C26.647 23.2523 26.647 23.2523 26.647 23.2523C26.647 23.2523 26.647 23.2523 26.647 23.2523C26.647 23.2523 26.647 23.2523 26.647 23.2523C26.647 23.2523 26.647 23.2523 26.647 23.2523C26.647 23.2523 26.647 23.2523 26.647 23.2523C26.647 23.2523 26.647 23.2523 26.647 23.2523C26.647 23.2523 26.647 23.2523 26.647 23.2523C26.647 23.2523 26.647 23.2523 26.647 23.2523C26.647 23.2523 26.647 23.2523 26.647 23.2523C26.647 23.2523 26.647 23.2523 26.647 23.2523C26.647 23.2523 26.647 23.2523 26.647 23.2523C26.647 23.2523 26.647 23.2523 26.647 23.2523C26.647 23.2523 26.647 23.2523 26.647 23.2523C26.647 23.2523 26.647 23.2523 26.647 23.2523C26.647 23.2523 26.647 23.2523 26.647 23.2523C26.647 23.2523 26.647 23.2523 26.647 23.2523C26.647 23.2523 26.647 23.2523 26.647 23.2523C26.647 23.2523 26.647 23.2523 26.647 23.2523C26.647 23.2523 26.647 23.2523 26.647 23.2523C26.647 23.2523 26.647 23.2523 26.647 23.2523C26.647 23.2523 26.647 23.2523 26.647 23.2523C26.647 23.2523 26.647 23.2523 26.647 23.2523C26.647 23.2523 26.647 23.2523 26.647 23.2523C26.647 23.2523 26.647 23.2523 26.647 23.2523C26.647 23.2523 26.647 23.2523 26.647 23.2523C26.647 23.2523 26.647 23.2523 26.647 23.2523C26.647 23.2523 26.647 23.2523 26.647 23.2523C26.647 23.2523 26.647 23.2523 26.647 23.2523C26.647 23.2523 26.647 23.2523 26.647 23.2523C26.647 23.2523 26.647 23.2523 26.647 23.2523C26.647 23.2523 26.647 23.2523 26.647 23.2523C26.647 23.2523 26.647 23.2523 26.647 23.2523C26.647 23.2523 26.647 23.2523 26.647 23.2523C26.647 23.2523 26.647 23.2523 26.647 23.2523C26.647 23.2523 26.647 23.2523 26.647 23.2523C26.647 23.2523 26.647 23.2523 26.647 23.2523C26.647 23.2523 26.647 23.2523 26.647 23.2523C26.647 23.2523 26.647 23.2523 26.647 23.2523C26.647 23.2523 26.647 23.2523 26.647 23.2523C26.647 23.2523 26.647 23.2523 26.647 23.2523C26.647 23.2523 26.647 23.2523 26.647 23.2523C26.647 23.2523 26.647 23.2523 26.647 23.2523C26.647 23.2523 26.647 23.2523 26.647 23.2523C26.647 23.2523 26.647 23.2523 26.647 23.2523C26.647 23.2523 26.647 23.2523 26.647 23.2523C26.647 23.2523 26.647 23.2523 26.647 23.2523C26.647 23.2523 26.647 23.2523 26.647 23.2523C26.647 23.2523 26.647 23.2523 26.647 23.2523C26.647 23.2523 26.647 23.2523 26.647 23.2523C26.647 23.2523 26.647 23.2523 26.647 23.2523C26.647 23.2523 26.647 23.2523 26.647 23.2523C26.647 23.2523 26.647 23.2523 26.647 23.2523C26.647 23.2523 26.647 23.2523 26.647 23.2523C26.647 23.2523 26.647 23.2523 26.647 23.2523C26.647 23.2523 26.647 23.2523 26.647 23.2523C26.647 23.2523 26.647 23.2523 26.647 23.2523C26.647 23.2523 26.647 23.2523 26.647 23.2523C26.647 23.2523 26.647 23.2523 26.647 23.2523C26.647 23.2523 26.647 23.2523 26.647 23.2523C26.647 23.2523 26.647 23.2523 26.647 23.2523C26.647 23.2523 26.647 23.2523 26.647 23.2523C26.647 23.2523 26.647 23.2523 26.647 23.2523C26.647 23.2523 26.647 23.2523 26.647 23.2523C26.647 23.2523 26.647 23.2523 26.647 23.2523C26.647 23.2523 26.647 23.2523 26.647 23.2523C26.647 23.2523 26.647 23.2523 26.647 23.2523C26.647 23.2523 26.647 23.2523 26.647 23.2523C26.647 23.2523 26.647 23.2523 26.647 23.2523C26.647 23.2523 26.647 23.2523 26.647 23.2523C26.647 23.2523 26.647 23.2523 26.647 23.2523C26.647 23.2523 26.647 23.2523 26.647 23.2523C26.647 23.2523 26.647 23.2523 26.647 23.2523C26.647 23.2523 26.647 23.2523 26.647 23.2523C26.647 23.2523 26.647 23.2523 26.647 23.2523C26.647 23.2523 26.647 23.2523 26.647 23.2523C26.647 23.2523 26.647 23.2523 26.647 23.2523C26.647 23.2523 26.647 23.2523 26.647 23.2523C26.647 23.2523 26.647 23.2523 26.647 23.2523C26.647 23.2523 26.647 23.2523 26.647 23.2523C26.647 23.2523 26.647 23.2523 26.647 23.2523C26.647 23.2523 26.647 23.2523 26.647 23.2523C26.647 23.2523 26.647 23.2523 26.647 23.2523C26.647 23.2523 26.647 23.2523 26.647 23.2523C26.647 23.2523 26.647 23.2523 26.647 23.2523C26.647 23.2523 26.647 23.2523 26.647 23.2523C26.647 23.2523 26.647 23.2523 26.647 23.2523C26.647 23.2523 26.647 23.2523 26.647 23.2523C26.647 23.2523 26.647 23.2523 26.647 23.2523C26.647 23.2523 26.647 23.2523 26.647 23.2523C26.647 23.2523 26.647 23.2523 26.647 23.2523C26.647 23.2523 26.647 23.2523 26.647 23.2523C26.647 23.2523 26.647 23.2523 26.647 23.2523C26.647 23.2523 26.647 23.2523 26.647 23.2523C26.647 23.2523 26.647 23.2523 26.647 23.2523C26.647 23.2523 26.647 23.2523 26.647 23.2523C26.647 23.2523 26.647 23.2523 26.647 23.2523C26.647 23.2523 26.647 23.2523 26.647 23.2523C26.647 23.2523 26.647 23.2523 26.647 23.2523C26.647 23.2523 26.647 23.2523 26.647 23.2523C26.647 23.2523 26.647 23.2523 26.647 23.2523C26.647 23.2523 26.647 23.2523 26.647 23.2523C26.647 23.2523 26.647 23.2523 26.647 23.2523C26.647 23.2523 26.647 23.2523 26.647 23.2523C26.647 23.2523 26.647 23.2523 26.647 23.2523C26.647 23.2523 26.647 23.2523 26.647 23.2523C26.647 23.2523 26.647 23.2523 26.647 23.2523C26.647 23.2523 26.647 23.2523 26.647 23.2523C26.647 23.2523 26.647 23.2523 26.647 23.2523C26.647 23.2523 26.647 23.2523 26.647 23.2523C26.647 23.2523 26.647 23.2523 26.647 23.2523C26.647 23.2523 26.647 23.2523 26.647 23.2523C26.647 23.2523 26.647 23.2523 26.647 23.2523C26.647 23.2523 26.647 23.2523 26.647 23.2523C26.647 23.2523 26.647 23.2523 26.647 23.2523C26.647 23.2523 26.647 23.2523 26.647 23.2523C26.647 23.2523 26.647 23.2523 26.647 23.2523C26.647 23.2523 26.647 23.2523 26.647 23.2523C26.647 23.2523 26.647 23.2523 26.647 23.2523C26.647 23.2523 26.647 23.2523 26.647 23.2523C26.647 23.2523 26.647 23.2523 26.647 23.2523C26.647 23.2523 26.647 23.2523 26.647 23.2523C26.647 23.2523 26.647 23.2523 26.647 23.2523C26.647 23.2523 26.647 23.2523 26.647 23.2523C26.647 23.2523 26.647 23.2523 26.647 23.2523C26.647 23.2523 26.647 23.2523 26.647 23.2523C26.647 23.2523 26.647 23.2523 26.647 23.2523C26.647 23.2523 26.647 23.2523 26.647 23.2523C26.647 23.2523 26.647 23.2523 26.647 23.2523C26.647 23.2523 26.647 23.2523 26.647 23.2523C26.647 23.2523 26.647 23.2523 26.647 23.2523C26.647 23.2523 26.647 23.2523 26.647 23.2523C26.647 23.2523 26.647 23.2523 26.647 23.2523C26.647 23.2523 26.647 23.2523 26.647 23.2523C26.647 23.2523 26.647 23.2523 26.647 23.2523C26.647 23.2523 26.647 23.2523 26.647 23.2523C26.647 23.2523 26.647 23.2523 26.647 23.2523C26.647 23.2523 26.647 23.2523 26.647 23.2523C26.647 23.2523 26.647 23.2523 26.647 23.2523C26.647 23.2523 26.647 23.2523 26.647 23.2523C26.647 23.2523 26.647 23.2523 26.647 23.2523C26.647 23.2523 26.647 23.2523 26.647 23.2523C26.647 23.2523 26.647 23.2523 26.647 23.2523C26.647 23.2523 26.647 23.2523 26.647 23.2523C26.647 23.2523 26.647 23.2523 26.647 23.2523C26.647 23.2523 26.647 23.2523 26.647 23.2523C26.647 23.2523 26.647 23.2523 26.647 23.2523C26.647 23.2523 26.647 23.2523 26.647 23.2523C26.647 23.2523 26.647 23.2523 26.647 23.2523C26.647 23.2523 26.647 23.2523 26.647 23.2523C26.647 23.2523 26.647 23.2523 26.647 23.2523C26.647 23.2523 26.647 23.2523 26.647 23.2523C26.647 23.2523 26.647 23.2523 26.647 23.2523C26.647 23.2523 26.647 23.2523 26.647 23.2523C26.647 23.2523 26.647 23.2523 26.647 23.2523C26.647 23.2523 26.647 23.2523 26.647 23.2523C26.647 23.2523 26.647 23.2523 26.647 23.2523C26.647 23.2523 26.647 23.2523 26.647 23.2523C26.647 23.2523 26.647 23.2523 26.647 23.2523C26.647 23.2523 26.647 23.2523 26.647 23.2523C26.647 23.2523 26.647 23.2523 26.647 23.2523C26.647 23.2523 26.647 23.2523 26.647 23.2523C26.647 23.2523 26.647 23.2523 26.647 23.2523C26.647 23.2523 26.647 23.2523 26.647 23.2523C26.647 23.2523 26.647 23.2523 26.647 23.2523C26.647 23.2523 26.647 23.2523 26.647 23.2523C26.647 23.2523 26.647 23.2523 26.647 23.2523C26.647 23.2523 26.647 23.2523 26.647 23.2523C26.647 23.2523 26.647 23.2523 26.647 23.2523C26.647 23.2523 26.647 23.2523 26.647 23.2523C26.647 23.2523 26.647 23.2523 26.647 23.2523C26.647 23.2523 26.647 23.2523 26.647 23.2523C26.647 23.2523 26.647 23.2523 26.647 23.2523C26.647 23.2523 26.647 23.2523 26.647 23.2523C26.647 23.2523 26.647 23.2523 26.647 23.2523C26.647 23.2523 26.647 23.2523 26.647 23.2523C26.647 23.2523 26.647 23.2523 26.647 23.2523C26.647 23.2523 26.647 23.2523 26.647 23.2523C26.647 23.2523 26.647 23.2523 26.647 23.2523C26.647 23.2523 26.647 23.2523 26.647 23.2523C26.647 23.2523 26.647 23.2523 26.647 23.2523C26.647 23.2523 26.647 23.2523 26.647 23.2523C26.647 23.2523 26.647 23.2523 26.647 23.2523C26.647 23.2523 26.647 23.2523 26.647 23.2523C26.647 23.2523 26.647 23.2523 26.647 23.2523C26.647 23.2523 26.647 23.2523 26.647 23.2523C26.647 23.2523 26.647 23.2523 26.647 23.2523C26.647 23.2523 26.647 23.2523 26.647 23.2523C26.647 23.2523 26.647 23.2523 26.647 23.2523C26.647 23.2523 26.647 23.2523 26.647 23.2523C26.647 23.2523 26.647 23.2523 26.647 23.2523C26.647 23.2523 26.647 23.2523 26.647 23.2523C26.647 23.2523 26.647 23.2523 26.647 23.2523C26.647 23.2523 26.647 23.2523 26.647 23.2523C26.647 23.2523 26.647 23.2523 26.647 23.2523C26.647 23.2523 26.647 23.2523 26.647 23.2523C26.647 23.2523 26.647 23.2523 26.647 23.2523C26.647 23.2523 26.647 23.2523 26.647 23.2523C26.647 23.2523 26.647 23.2523 26.647 23.2523C26.647 23.2523 26.647 23.2523 26.647 23.2523C26.647 23.2523 26.647 23.2523 26.647 23.2523C26.647 23.2523 26.647 23.2523 26.647 23.2523C26.647 23.2523 26.647 23.2523 26.647 23.2523C26.647 23.2523 26.647 23.2523 26.647 23.2523C26.647 23.2523 26.647 23.2523 26.647 23.2523C26.647 23.2523 26.647 23.2523 26.647 23.2523C26.647 23.2523 26.647 23.2523 26.647 23.2523C26.647 23.2523 26.647 23.2523 26.647 23.2523C26.647 23.2523 26.647 23.2523 26.647 23.2523C26.647 23.2523 26.647 23.2523 26.647 23.2523C26.647 23.2523 26.647 23.2523 26.647 23.2523C26.647 23.2523 26.647 23.2523 26.647 23.2523C26.647 23.2523 26.647 23.2523 26.647 23.2523C26.647 23.2523 26.647 23.2523 26.647 23.2523C26.647 23.2523 26.647 23.2523 26.647 23.2523C26.647 23.2523 26.647 23.2523 26.647 23.2523C26.647 23.2523 26.647 23.2523 26.647 23.2523C26.647 23.2523 26.647 23.2523 26.647 23.2523C26.647 23.2523 26.647 23.2523 26.647 23.2523C26.647 23.2523 26.647 23.2523 26.647 23.2523C26.647 23.2523 26.647 23.2523 26.647 23.2523C26.647 23.2523 26.647 23.2523 26.647 23.2523C26.647 23.2523 26.647 23.2523 26.647 23.2523C26.647 23.2523 26.647 23.2523 26.647 23.2523C26.647 23.2523 26.647 23.2523 26.647 23.2523C26.647 23.2523 26.647 23.2523 26.647 23.2523C26.647 23.2523 26.647 23.2523 26.647 23.2523C26.647 23.2523 26.647 23.2523 26.647 23.2523C26.647 23.2523 26.647 23.2523 26.647 23.2523C26.647 23.2523 26.647 23.2523 26.647 23.2523C26.647 23.2523 26.647 23.2523 26.647 23.2523C26.647 23.2523 26.647 23.2523 26.647 23.2523C26.647 23.2523 26.647 23.2523 26.647 23.2523C26.647 23.2523 26.647 23.2523 26.647 23.2523C26.647 23.2523 26.647 23.2523 26.647 23.2523C26.647 23.2523 26.647 23.2523 26.647 23.2523C26.647 23.2523 26.647 23.2523 26.647 23.2523C26.647 23.2523 26.647 23.2523 26.647 23.2523C26.647 23.2523 26.647 23.2523 26.647 23.2523C26.647 23.2523 26.647 23.2523 26.647 23.2523C26.647 23.2523 26.647 23.2523 26.647 23.2523C26.647 23.2523 26.647 23.2523 26.647 23.2523C26.647 23.2523 26.647 23.2523 26.647 23.2523C26.647 23.2523 26.647 23.2523 26.647 23.2523C26.647 23.2523 26.647 23.2523 26.647 23.2523C26.647 23.2523 26.647 23.2523 26.647 23.2523C26.647 23.2523 26.647 23.2523 26.647 23.2523C26.647 23.2523 26.647 23.2523 26.647 23.2523C26.647 23.2523 26.647 23.2523 26.647 23.2523C26.647 23.2523 26.647 23.2523 26.647 23.2523C26.647 23.2523 26.647 23.2523 26.647 23.2523C26.647 23.2523 26.647 23.2523 26.647 23.2523C26.647 23.2523 26.647 23.2523 26.647 23.2523C26.647 23.2523 26.647 23.2523 26.647 23.2523C26.647 23.2523 26.647 23.2523 26.647 23.2523C26.647 23.2523 26.647 23.2523 26.647 23.2523C26.647 23.2523 26.647 23.2523 26.647 23.2523C26.647 23.2523 26.647 23.2523 26.647 23.2523C26.647 23.2523 26.647 23.2523 26.647 23.2523C26.647 23.2523 26.647 23.2523 26.647 23.2523H24.1452ZM24.1452 23.2523C24.1452 24.4613 23.1651 25.4414 21.9561 25.4414V27.9432C24.5468 27.9432 26.647 25.843 26.647 23.2523H24.1452ZM21.9561 25.4414C20.7471 25.4414 19.767 24.4613 19.767 23.2523H17.2652C17.2652 25.843 19.3654 27.9432 21.9561 27.9432V25.4414ZM19.767 23.2523L19.767 23.2523L17.2652 23.2523C17.2652 23.2523 17.2652 23.2523 17.2652 23.2523C17.2652 23.2523 17.2652 23.2523 17.2652 23.2523H19.767ZM19.767 23.2523C19.767 22.9931 19.8116 22.747 19.8923 22.5195L17.5348 21.6823C17.3599 22.1748 17.2652 22.7038 17.2652 23.2523L19.767 23.2523ZM19.906 22.4788C20.2278 21.4632 21.1054 20.0148 22.8406 17.8229L20.879 16.27C19.1298 18.4797 17.9923 20.236 17.5211 21.723L19.906 22.4788ZM22.8406 17.8229C22.3902 18.3919 21.5286 18.394 21.0755 17.8267L23.0304 16.2654C22.4789 15.5749 21.4273 15.5775 20.879 16.27L22.8406 17.8229ZM21.0755 17.8267C22.8451 20.0424 23.7159 21.5055 24.0214 22.5208L26.4171 21.8002C25.9628 20.2897 24.8198 18.5059 23.0304 16.2654L21.0755 17.8267ZM24.0329 22.5573C24.1054 22.774 24.1452 23.0073 24.1452 23.2523L26.647 23.2523C26.647 22.7341 26.5625 22.2331 26.4056 21.7638L24.0329 22.5573Z" fill="#282633" mask="url(#path-11-inside-1_1084_103)"/>
</svg>
