<svg width="40" height="40" viewBox="0 0 40 40" fill="none" xmlns="http://www.w3.org/2000/svg">
<circle cx="20" cy="20" r="18.8281" stroke="#282633" stroke-width="2.34375"/>
<path fill-rule="evenodd" clip-rule="evenodd" d="M21.1721 30.3125C24.1799 30.4948 30.0158 28.8828 29.2971 20.9766C29.2971 20.6511 29.0393 19.9766 28.008 19.8828C28.5028 19.375 29.4533 17.375 29.2971 13.4375C29.2875 13.1959 29.1018 12.6953 28.3596 12.5391C27.7346 12.4141 25.0002 12.3359 24.3752 12.7734C24.6356 11.1849 24.1955 7.35156 20.3518 4.72656H19.6486C18.0601 5.76824 15.0393 8.83596 15.6643 12.7734C15.0914 12.6172 13.4065 12.3516 11.2502 12.5391C11.2254 12.5727 11.2042 12.5975 11.1834 12.6217C11.1034 12.7151 11.0295 12.8013 10.7815 13.3594C10.6252 15 10.6075 17.7615 12.0705 19.8828C11.6408 19.9089 10.7033 20.1641 10.7033 20.9766C10.7033 21.0449 10.6985 21.1464 10.6924 21.2763C10.6077 23.0749 10.2667 30.3125 18.8283 30.3125H21.1721ZM18.8283 34.2188C18.8283 34.866 19.353 35.3907 20.0002 35.3907C20.6474 35.3907 21.172 34.866 21.172 34.2188V30.3126H18.8283V34.2188Z" fill="#282633"/>
<path d="M22.0698 11.6018C22.0698 13.5159 20.2339 15.5862 19.9995 15.5862C19.7651 15.5862 17.9292 13.5159 17.9292 11.6018C17.9292 9.68774 19.7651 7.46118 19.9995 7.46118C20.2339 7.46118 22.0698 9.68774 22.0698 11.6018Z" fill="#DB7A35"/>
<path d="M25.5107 19.1372C24.1573 20.4907 21.3952 20.6564 21.2294 20.4907C21.0637 20.3249 21.2294 17.5628 22.5829 16.2094C23.9363 14.8559 26.8089 14.5797 26.9747 14.7454C27.1404 14.9112 26.8642 17.7838 25.5107 19.1372Z" fill="#DB7A35"/>
<path d="M25.5107 26.5591C24.1573 27.9125 21.3952 28.0783 21.2294 27.9125C21.0637 27.7468 21.2294 24.9847 22.5829 23.6312C23.9363 22.2778 26.8089 22.0016 26.9747 22.1673C27.1404 22.333 26.8642 25.2057 25.5107 26.5591Z" fill="#DB7A35"/>
<path d="M14.4902 19.1372C15.8437 20.4907 18.6058 20.6564 18.7715 20.4907C18.9373 20.3249 18.7715 17.5628 17.4181 16.2094C16.0647 14.8559 13.192 14.5797 13.0263 14.7454C12.8606 14.9112 13.1368 17.7838 14.4902 19.1372Z" fill="#DB7A35"/>
<path d="M14.4902 26.5591C15.8437 27.9125 18.6058 28.0783 18.7715 27.9125C18.9373 27.7468 18.7715 24.9847 17.4181 23.6312C16.0647 22.2778 13.192 22.0016 13.0263 22.1673C12.8606 22.333 13.1368 25.2057 14.4902 26.5591Z" fill="#DB7A35"/>
</svg>
