<svg width="28" height="28" viewBox="0 0 28 28" fill="none" xmlns="http://www.w3.org/2000/svg">
<path d="M19.4275 28H8.57252C3.84551 28 0 24.1545 0 19.4276V8.57241C0 3.84546 3.84551 0 8.57252 0H19.4275C24.1545 0 28 3.84546 28 8.57241V19.4276C28.0004 24.1542 24.1549 28 19.4275 28ZM8.57252 2.09667C5.00182 2.09667 2.09669 5.00176 2.09669 8.57241V19.4276C2.09669 22.9982 5.00182 25.9033 8.57252 25.9033H19.4275C22.9985 25.9033 25.9037 22.9982 25.9037 19.4276V8.57241C25.9037 5.00176 22.9985 2.09667 19.4275 2.09667H8.57252Z" fill="#F5F5F5"/>
<path d="M14 21.0826C10.0945 21.0826 6.91748 17.9052 6.91748 13.9998C6.91748 10.0943 10.0945 6.91699 14 6.91699C17.9055 6.91699 21.0829 10.0943 21.0829 13.9998C21.0829 17.9052 17.9055 21.0826 14 21.0826ZM14 9.06418C11.2784 9.06418 9.06434 11.2783 9.06434 14.0001C9.06434 16.7217 11.2784 18.9357 14 18.9357C16.7216 18.9357 18.9357 16.7217 18.9357 14.0001C18.9357 11.2783 16.7216 9.06418 14 9.06418Z" fill="#F5F5F5"/>
<path d="M23.6979 6.14677C23.6979 7.16529 22.8724 7.9908 21.8538 7.9908C20.8353 7.9908 20.0098 7.16529 20.0098 6.14677C20.0098 5.12824 20.8353 4.30273 21.8538 4.30273C22.8724 4.30273 23.6979 5.12824 23.6979 6.14677Z" fill="#F5F5F5"/>
</svg>
