<svg width="40" height="40" viewBox="0 0 40 40" fill="none" xmlns="http://www.w3.org/2000/svg">
<circle cx="20" cy="20" r="18.8281" stroke="#282633" stroke-width="2.34375"/>
<line x1="6.53177" y1="6.51511" x2="33.6411" y2="33.6245" stroke="#282633" stroke-width="2.34375"/>
<path d="M15.6641 13.9453H28.3203V30C28.3203 30.7119 27.7432 31.2891 27.0312 31.2891H15.6641V13.9453Z" fill="#DB7A35" stroke="#282633" stroke-width="1.32812"/>
<path d="M11.6797 13.9453H14.3359V31.0243L12.5517 30.4142L12.3369 31.0426L12.5517 30.4142C12.0301 30.2359 11.6797 29.7457 11.6797 29.1945V13.9453Z" fill="#DB7A35" stroke="#282633" stroke-width="1.32812"/>
<path d="M13.6719 14.6094H15V30.625L13.6719 30.0955V14.6094Z" fill="#DB7A35"/>
<path d="M14.7656 10.6641L16.0156 13.2422H27.1875L25.9375 10.6641H14.7656Z" fill="#DB7A35"/>
<path d="M14.7656 10.6641L16.0156 13.2422H27.1875L25.9375 10.6641H14.7656Z" stroke="#282633"/>
<path d="M25.625 9.96094H26.2891V9.29688V8.59375C26.2891 7.88182 25.7119 7.30469 25 7.30469H14.9219C14.2099 7.30469 13.6328 7.88182 13.6328 8.59375V9.29688V9.96094H14.2969H25.625Z" fill="#DB7A35" stroke="#282633" stroke-width="1.32812"/>
<path d="M12.7852 13.375H14.5865C14.5921 13.375 14.5959 13.3692 14.5936 13.364L13.673 11.2667C13.6702 11.2604 13.6613 11.2604 13.6586 11.2668L12.778 13.3642C12.7758 13.3693 12.7796 13.375 12.7852 13.375Z" fill="#DB7A35"/>
<line x1="26.184" y1="9.79862" x2="28.1371" y2="13.7049" stroke="#282633" stroke-width="1.25"/>
<line x1="13.7971" y1="10.1718" x2="15.7502" y2="14.078" stroke="#282633" stroke-width="1.32812"/>
<line x1="13.5651" y1="10.0577" x2="11.6901" y2="13.8858" stroke="#282633" stroke-width="1.32812"/>
<mask id="path-12-inside-1_884_1497" fill="white">
<path fill-rule="evenodd" clip-rule="evenodd" d="M25.3956 23.2523C25.3956 25.1521 23.8555 26.6923 21.9556 26.6923C20.0558 26.6923 18.5156 25.1521 18.5156 23.2523C18.5156 22.8484 18.5852 22.4607 18.7131 22.1007C19.1097 20.8494 20.1172 19.2471 21.8593 17.0464C21.9082 16.9847 22.0033 16.9845 22.0524 17.046C23.8318 19.274 24.8388 20.8974 25.2187 22.1603C25.3335 22.5034 25.3956 22.8706 25.3956 23.2523Z"/>
</mask>
<path d="M18.7131 22.1007L19.8919 22.5193L19.8991 22.4991L19.9056 22.4786L18.7131 22.1007ZM21.8593 17.0464L22.8401 17.8229L21.8593 17.0464ZM22.0524 17.046L21.075 17.8267L21.075 17.8267L22.0524 17.046ZM25.2187 22.1603L24.0208 22.5207L24.0263 22.539L24.0324 22.5571L25.2187 22.1603ZM24.1447 23.2523C24.1447 24.4613 23.1646 25.4414 21.9556 25.4414V27.9432C24.5463 27.9432 26.6465 25.843 26.6465 23.2523H24.1447ZM21.9556 25.4414C20.7466 25.4414 19.7665 24.4613 19.7665 23.2523H17.2647C17.2647 25.843 19.3649 27.9432 21.9556 27.9432V25.4414ZM19.7665 23.2523C19.7665 22.993 19.8111 22.7469 19.8919 22.5193L17.5344 21.682C17.3594 22.1746 17.2647 22.7037 17.2647 23.2523H19.7665ZM19.9056 22.4786C20.2275 21.463 21.105 20.0147 22.8401 17.8229L20.8786 16.27C19.1294 18.4796 17.9919 20.2358 17.5207 21.7227L19.9056 22.4786ZM22.8401 17.8229C22.3897 18.3919 21.5281 18.394 21.075 17.8267L23.0299 16.2654C22.4784 15.5749 21.4268 15.5775 20.8786 16.27L22.8401 17.8229ZM21.075 17.8267C22.8445 20.0422 23.7154 21.5053 24.0208 22.5207L26.4166 21.7999C25.9622 20.2895 24.8192 18.5058 23.0299 16.2654L21.075 17.8267ZM24.0324 22.5571C24.1049 22.7739 24.1447 23.0072 24.1447 23.2523H26.6465C26.6465 22.734 26.562 22.2329 26.405 21.7635L24.0324 22.5571Z" fill="#282633" mask="url(#path-12-inside-1_884_1497)"/>
</svg>
