<svg width="459" height="459" viewBox="0 0 459 459" fill="none" xmlns="http://www.w3.org/2000/svg">
<ellipse cx="229.423" cy="229.219" rx="152.949" ry="152.812" fill="#DEC43D"/>
<path d="M236.039 446.989C233.097 452.08 225.749 452.08 222.808 446.989L202.933 412.596C199.99 407.503 203.666 401.133 209.549 401.133L249.298 401.133C255.181 401.133 258.857 407.503 255.913 412.596L236.039 446.989Z" fill="#DEC43D"/>
<path d="M79.5937 388.269C73.9098 389.791 68.7087 384.594 70.2317 378.915L80.5195 340.555C82.0425 334.876 89.1474 332.974 93.3082 337.131L121.415 365.213C125.576 369.37 123.672 376.469 117.988 377.99L79.5937 388.269Z" fill="#DEC43D"/>
<path d="M11.4737 235.837C6.37656 232.897 6.37657 225.541 11.4737 222.6L45.8975 202.743C50.9912 199.805 57.3558 203.481 57.3558 209.362L57.3558 249.076C57.3558 254.956 50.9912 258.632 45.8975 255.694L11.4737 235.837Z" fill="#DEC43D"/>
<path d="M70.2314 79.5222C68.7084 73.8434 73.9095 68.6469 79.5934 70.1685L117.988 80.4472C123.672 81.9688 125.576 89.0673 121.415 93.2245L93.3079 121.306C89.147 125.463 82.0422 123.561 80.5192 117.883L70.2314 79.5222Z" fill="#DEC43D"/>
<path d="M222.808 11.4481C225.749 6.35781 233.097 6.35782 236.039 11.4482L255.913 45.8412C258.857 50.935 255.181 57.3047 249.298 57.3047L209.549 57.3047C203.666 57.3047 199.99 50.9349 202.933 45.8412L222.808 11.4481Z" fill="#DEC43D"/>
<path d="M378.847 388.269C384.531 389.79 389.732 384.594 388.209 378.915L377.921 340.555C376.398 334.876 369.293 332.974 365.132 337.131L337.025 365.213C332.864 369.37 334.768 376.468 340.452 377.99L378.847 388.269Z" fill="#DEC43D"/>
<path d="M446.966 235.837C452.064 232.897 452.064 225.541 446.966 222.6L412.543 202.743C407.449 199.805 401.084 203.481 401.084 209.362L401.084 249.076C401.084 254.956 407.449 258.632 412.543 255.694L446.966 235.837Z" fill="#DEC43D"/>
<path d="M388.209 79.5222C389.732 73.8434 384.531 68.6469 378.847 70.1685L340.452 80.4472C334.768 81.9688 332.865 89.0673 337.025 93.2245L365.132 121.306C369.293 125.463 376.398 123.561 377.921 117.883L388.209 79.5222Z" fill="#DEC43D"/>
</svg>
