<svg width="28" height="28" viewBox="0 0 28 28" fill="none" xmlns="http://www.w3.org/2000/svg">
<path d="M20.297 17.6354C19.9564 17.4604 18.2595 16.6292 17.9439 16.5167C17.6283 16.3979 17.397 16.3417 17.1689 16.6917C16.9377 17.0386 16.2814 17.8104 16.0752 18.0448C15.8752 18.276 15.6721 18.3042 15.3314 18.1323C13.3065 17.1198 11.9784 16.3261 10.644 14.0355C10.2909 13.4261 10.9971 13.4699 11.6565 12.1542C11.769 11.923 11.7127 11.7261 11.6252 11.5511C11.5377 11.3761 10.8502 9.68241 10.5627 8.99179C10.2846 8.31992 9.99713 8.41367 9.78776 8.40117C9.58776 8.38867 9.35964 8.38867 9.12839 8.38867C8.89714 8.38867 8.52527 8.47617 8.20965 8.81679C7.89403 9.16366 7.00342 9.99803 7.00342 11.6918C7.00342 13.3855 8.23778 15.0261 8.40653 15.2573C8.58152 15.4886 10.8346 18.9635 14.294 20.4604C16.4814 21.4041 17.3377 21.4854 18.4314 21.3229C19.097 21.2229 20.4689 20.4916 20.7532 19.6823C21.0376 18.876 21.0376 18.1854 20.9532 18.0417C20.8689 17.8886 20.6376 17.8011 20.297 17.6354Z" fill="#F5F5F5"/>
<path d="M26.9123 8.57489C26.2061 6.89679 25.1936 5.39056 23.903 4.09682C22.6124 2.80621 21.1062 1.7906 19.4249 1.08749C17.7062 0.365621 15.8812 0 14 0H13.9375C12.0438 0.00937488 10.2094 0.38437 8.48445 1.12186C6.81884 1.83435 5.32511 2.84684 4.047 4.13745C2.76889 5.42806 1.76578 6.92804 1.07204 8.59989C0.353298 10.3311 -0.00919759 12.1717 0.000177287 14.0654C0.00955217 16.2342 0.528296 18.3873 1.50016 20.3122V25.0622C1.50016 25.8559 2.1439 26.4997 2.93764 26.4997H7.69071C9.61568 27.4715 11.7688 27.9903 13.9375 27.9996H14.0031C15.875 27.9996 17.6906 27.6372 19.3999 26.9278C21.0718 26.2309 22.5749 25.2309 23.8624 23.9528C25.153 22.6747 26.1686 21.181 26.878 19.5154C27.6155 17.7904 27.9904 15.956 27.9998 14.0623C28.0092 12.1592 27.6405 10.3124 26.9123 8.57489ZM22.1905 22.2622C19.9999 24.4309 17.0937 25.6247 14 25.6247H13.9469C12.0625 25.6153 10.1907 25.1466 8.53757 24.2653L8.27507 24.1247H3.87513V19.7248L3.73451 19.4623C2.85327 17.8092 2.38452 15.9373 2.37515 14.0529C2.36265 10.9374 3.55326 8.0124 5.73761 5.8093C7.91883 3.6062 10.8344 2.38747 13.95 2.37497H14.0031C15.5656 2.37497 17.0812 2.67809 18.5093 3.27808C19.9031 3.86245 21.153 4.70307 22.228 5.77805C23.2999 6.84991 24.1436 8.10302 24.728 9.49676C25.3342 10.9405 25.6374 12.4717 25.6311 14.0529C25.6124 17.1654 24.3905 20.081 22.1905 22.2622Z" fill="#F5F5F5"/>
<path d="M1.5 26.5V25L4 26.5H1.5Z" fill="#F5F5F5"/>
</svg>
