<svg width="50" height="50" viewBox="0 0 50 50" fill="none" xmlns="http://www.w3.org/2000/svg">
<rect x="0.78125" y="0.78125" width="48.4375" height="48.4375" rx="24.2188" fill="#282633"/>
<rect x="0.78125" y="0.78125" width="48.4375" height="48.4375" rx="24.2188" stroke="#F5F5F5" stroke-width="1.5625"/>
<path d="M14.426 14.4079L14.0774 19.0099V23.054L16.9362 33.9312L18.749 42.2287H31.0906L32.6245 36.1625L34.0888 29.678L35.2044 24.9366L35.7622 19.986V16.5694L35.2044 13.8501L33.6007 10.7125L31.9273 8.82985L29.4869 7.22615L26.2097 6.38943H23.0721L20.5619 7.22615L17.9821 8.82985L15.7508 11.2703L14.426 14.4079Z" fill="#282633"/>
<mask id="path-3-inside-1_942_127" fill="white">
<path fill-rule="evenodd" clip-rule="evenodd" d="M37.7165 23.5199C37.7995 23.976 37.4491 24.3958 36.9855 24.3958H35.8414L34.815 28.8405H35.026C35.4366 28.8405 35.7335 29.233 35.6218 29.6281L34.0462 35.2007C33.9708 35.4673 33.7275 35.6514 33.4504 35.6514H33.2421L31.6657 42.4777C31.6008 42.7586 31.3507 42.9575 31.0624 42.9575H18.9557C18.6674 42.9575 18.4173 42.7586 18.3524 42.4777L16.776 35.6514H16.568C16.2909 35.6514 16.0476 35.4673 15.9722 35.2007L14.3963 29.6282C14.2846 29.233 14.5815 28.8405 14.9921 28.8405H15.2031L14.1767 24.3958H13.0152C12.5516 24.3958 12.2012 23.9759 12.2842 23.5198L12.8712 20.2917C12.9355 19.9384 13.2432 19.6816 13.6022 19.6816H36.3987C36.7578 19.6816 37.0655 19.9385 37.1297 20.2918L37.7165 23.5199Z"/>
</mask>
<path d="M37.7165 23.5199L38.5694 23.3648L38.5694 23.3648L37.7165 23.5199ZM35.8414 24.3958V23.5289H35.1519L34.9968 24.2007L35.8414 24.3958ZM34.815 28.8405L33.9704 28.6455L33.7251 29.7074H34.815V28.8405ZM35.6218 29.6281L34.7877 29.3923L34.7877 29.3923L35.6218 29.6281ZM34.0462 35.2007L34.8803 35.4365L34.8803 35.4365L34.0462 35.2007ZM33.2421 35.6514V34.7845H32.5526L32.3975 35.4563L33.2421 35.6514ZM31.6657 42.4777L30.8211 42.2826L30.8211 42.2826L31.6657 42.4777ZM18.3524 42.4777L19.197 42.2826L19.197 42.2826L18.3524 42.4777ZM16.776 35.6514L17.6206 35.4563L17.4654 34.7845H16.776V35.6514ZM15.9722 35.2007L16.8063 34.9648L16.8063 34.9648L15.9722 35.2007ZM14.3963 29.6282L15.2305 29.3923L15.2305 29.3923L14.3963 29.6282ZM15.2031 28.8405V29.7074H16.293L16.0477 28.6455L15.2031 28.8405ZM14.1767 24.3958L15.0213 24.2007L14.8661 23.5289H14.1767V24.3958ZM12.2842 23.5198L13.137 23.6749L13.137 23.6749L12.2842 23.5198ZM12.8712 20.2917L13.7241 20.4468L13.7241 20.4468L12.8712 20.2917ZM37.1297 20.2918L37.9826 20.1367L37.9826 20.1367L37.1297 20.2918ZM36.9855 25.2626C37.9899 25.2626 38.749 24.353 38.5694 23.3648L36.8637 23.6749C36.8499 23.5989 36.9083 23.5289 36.9855 23.5289V25.2626ZM35.8414 25.2626H36.9855V23.5289H35.8414V25.2626ZM35.6596 29.0356L36.686 24.5908L34.9968 24.2007L33.9704 28.6455L35.6596 29.0356ZM35.026 27.9737H34.815V29.7074H35.026V27.9737ZM36.4559 29.864C36.7241 28.9156 36.0115 27.9737 35.026 27.9737V29.7074C34.8617 29.7074 34.743 29.5504 34.7877 29.3923L36.4559 29.864ZM34.8803 35.4365L36.4559 29.864L34.7877 29.3923L33.2121 34.9648L34.8803 35.4365ZM33.4504 36.5182C34.1154 36.5182 34.6994 36.0764 34.8803 35.4365L33.2121 34.9648C33.2422 34.8582 33.3396 34.7845 33.4504 34.7845V36.5182ZM33.2421 36.5182H33.4504V34.7845H33.2421V36.5182ZM32.5103 42.6727L34.0867 35.8464L32.3975 35.4563L30.8211 42.2826L32.5103 42.6727ZM31.0624 43.8243C31.7543 43.8243 32.3546 43.3468 32.5103 42.6727L30.8211 42.2826C30.847 42.1703 30.9471 42.0907 31.0624 42.0907V43.8243ZM18.9557 43.8243H31.0624V42.0907H18.9557V43.8243ZM17.5078 42.6727C17.6635 43.3468 18.2638 43.8243 18.9557 43.8243V42.0907C19.071 42.0907 19.1711 42.1703 19.197 42.2826L17.5078 42.6727ZM15.9314 35.8464L17.5078 42.6727L19.197 42.2826L17.6206 35.4563L15.9314 35.8464ZM16.568 36.5182H16.776V34.7845H16.568V36.5182ZM15.1381 35.4366C15.319 36.0764 15.903 36.5182 16.568 36.5182V34.7845C16.6788 34.7845 16.7762 34.8582 16.8063 34.9648L15.1381 35.4366ZM13.5622 29.8641L15.1381 35.4366L16.8063 34.9648L15.2305 29.3923L13.5622 29.8641ZM14.9921 27.9737C14.0065 27.9737 13.294 28.9157 13.5622 29.8641L15.2305 29.3923C15.2752 29.5504 15.1564 29.7074 14.9921 29.7074V27.9737ZM15.2031 27.9737H14.9921V29.7074H15.2031V27.9737ZM13.3321 24.5908L14.3585 29.0356L16.0477 28.6455L15.0213 24.2007L13.3321 24.5908ZM13.0152 25.2626H14.1767V23.5289H13.0152V25.2626ZM11.4313 23.3647C11.2516 24.3529 12.0108 25.2626 13.0152 25.2626V23.5289C13.0925 23.5289 13.1508 23.5989 13.137 23.6749L11.4313 23.3647ZM12.0184 20.1366L11.4313 23.3647L13.137 23.6749L13.7241 20.4468L12.0184 20.1366ZM13.6022 18.8148C12.8243 18.8148 12.1576 19.3712 12.0184 20.1366L13.7241 20.4468C13.7134 20.5057 13.6621 20.5485 13.6022 20.5485V18.8148ZM36.3987 18.8148H13.6022V20.5485H36.3987V18.8148ZM37.9826 20.1367C37.8434 19.3712 37.1767 18.8148 36.3987 18.8148V20.5485C36.3388 20.5485 36.2876 20.5057 36.2769 20.4468L37.9826 20.1367ZM38.5694 23.3648L37.9826 20.1367L36.2769 20.4468L36.8637 23.6749L38.5694 23.3648Z" fill="white" mask="url(#path-3-inside-1_942_127)"/>
<path d="M33.4506 35.6514C33.7276 35.6514 33.971 35.4673 34.0464 35.2007L35.6219 29.6281C35.7337 29.233 35.4368 28.8405 35.0261 28.8405H14.9923C14.5816 28.8405 14.2848 29.233 14.3965 29.6282L15.9723 35.2007C16.0477 35.4673 16.2911 35.6514 16.5682 35.6514H33.4506Z" fill="white"/>
<path d="M37.7167 23.5199C37.7996 23.976 37.4493 24.3958 36.9857 24.3958H13.0154C12.5518 24.3958 12.2014 23.9759 12.2844 23.5198L12.8714 20.2917C12.9357 19.9384 13.2434 19.6816 13.6024 19.6816H36.3989C36.758 19.6816 37.0657 19.9385 37.1299 20.2918L37.7167 23.5199Z" fill="white"/>
<path d="M35.8207 17.5035V22.6358H14.1805V17.5035C14.1805 11.5277 19.0248 6.68342 25.0006 6.68342C30.9764 6.68342 35.8207 11.5277 35.8207 17.5035Z" stroke="white" stroke-width="0.866835"/>
<path fill-rule="evenodd" clip-rule="evenodd" d="M29.7339 17.7741V17.0121V15.8842C29.7339 15.0723 29.2409 14.3735 28.5343 14.0747L28.5342 14.0747C27.5056 13.6395 26.806 12.7129 26.5743 11.6743L26.5742 11.6741L26.3745 10.7795L24.3293 12.3333C23.4199 13.0243 22.4063 13.6336 21.2853 14.0352L21.2852 14.0352C20.5256 14.3074 19.9841 15.0339 19.9841 15.8845V17.0125V17.769C19.9777 17.8287 19.9289 17.8757 19.8684 17.8793H19.1173C18.033 17.8793 17.154 18.7583 17.154 19.8426V20.1037H32.564V19.8426V19.8424C32.5642 18.758 31.6853 17.879 30.6007 17.879H29.836C29.783 17.8701 29.7414 17.8276 29.7339 17.7741ZM33.4308 20.1037V20.9705H32.564H17.154H16.2872V20.1037V19.8426C16.2872 18.2796 17.5543 17.0125 19.1173 17.0125V16.1456V15.8845C19.1173 14.6564 19.8996 13.6108 20.9929 13.2192C22.0092 12.8551 22.9452 12.2963 23.8048 11.6431L26.1576 9.85575C26.5168 9.58279 27.0381 9.77348 27.1364 10.2139L27.4203 11.4854C27.5968 12.2768 28.125 12.9603 28.872 13.2763C29.888 13.706 30.6007 14.7119 30.6007 15.8842V16.1453V17.0121C32.164 17.0121 33.4311 18.2792 33.4308 19.8426V20.1037Z" fill="white"/>
<path d="M16.8126 27.0774C16.5845 27.0033 16.5845 26.6805 16.8126 26.6063L18.6975 25.9939C18.7995 25.9608 18.8686 25.8657 18.8686 25.7584L18.8686 23.7765C18.8686 23.5366 19.1756 23.4368 19.3167 23.6309L20.4816 25.2343C20.5446 25.3211 20.6564 25.3574 20.7585 25.3243L22.6433 24.7118C22.8715 24.6377 23.0612 24.8988 22.9202 25.0929L21.7553 26.6963C21.6923 26.7831 21.6923 26.9006 21.7553 26.9875L22.9202 28.5908C23.0612 28.7849 22.8715 29.0461 22.6433 28.9719L20.7585 28.3595C20.6564 28.3263 20.5446 28.3627 20.4816 28.4495L19.3167 30.0528C19.1756 30.2469 18.8686 30.1472 18.8686 29.9073L18.8686 27.9254C18.8686 27.8181 18.7995 27.723 18.6975 27.6899L16.8126 27.0774Z" fill="white"/>
<path d="M29.7816 35.391C29.9318 35.2039 30.2337 35.3184 30.2221 35.558L30.1263 37.5376C30.1211 37.6448 30.1855 37.7431 30.2858 37.7811L32.1389 38.4839C32.3632 38.569 32.3476 38.8914 32.1161 38.9545L30.2039 39.4751C30.1004 39.5033 30.0268 39.5949 30.0216 39.7021L29.9258 41.6816C29.9142 41.9213 29.6027 42.0061 29.4713 41.8054L28.3852 40.1476C28.3264 40.0579 28.2165 40.0162 28.113 40.0444L26.2007 40.565C25.9692 40.628 25.7923 40.358 25.9426 40.1709L27.1836 38.6258C27.2508 38.5421 27.2565 38.4247 27.1977 38.3349L26.1116 36.6772C25.9801 36.4765 26.1823 36.2248 26.4066 36.3099L28.2596 37.0127C28.36 37.0507 28.4734 37.0198 28.5406 36.9362L29.7816 35.391Z" fill="white"/>
<path d="M28.4972 33.5959C28.3607 33.7932 28.0514 33.7005 28.0459 33.4607L28.0113 31.9572C28.0088 31.85 27.9376 31.7565 27.8348 31.7257L26.3943 31.294C26.1645 31.2251 26.157 30.9024 26.3834 30.823L27.8026 30.3256C27.9038 30.2901 27.9707 30.1934 27.9683 30.0861L27.9337 28.5827C27.9282 28.3429 28.2328 28.2361 28.3782 28.4269L29.2899 29.6228C29.355 29.7082 29.4676 29.7419 29.5688 29.7064L30.988 29.2089C31.2144 29.1296 31.4101 29.3863 31.2736 29.5836L30.4179 30.8202C30.3568 30.9084 30.3595 31.026 30.4246 31.1113L31.3362 32.3073C31.4817 32.4981 31.298 32.7635 31.0682 32.6946L29.6276 32.263C29.5249 32.2322 29.4139 32.271 29.3529 32.3593L28.4972 33.5959Z" fill="#282633"/>
<path d="M22.1906 35.9392C22.1851 36.1791 21.8758 36.2717 21.7393 36.0744L21.1234 35.1843C21.0624 35.0961 20.9515 35.0572 20.8487 35.088L19.8118 35.3987C19.582 35.4675 19.3983 35.2021 19.5438 35.0113L20.2 34.1505C20.2651 34.0651 20.2678 33.9476 20.2067 33.8594L19.5908 32.9693C19.4543 32.772 19.65 32.5153 19.8764 32.5946L20.8979 32.9527C20.9991 32.9882 21.1117 32.9545 21.1768 32.8692L21.833 32.0084C21.9785 31.8176 22.2831 31.9244 22.2776 32.1642L22.2527 33.2464C22.2502 33.3536 22.3171 33.4503 22.4183 33.4858L23.4398 33.8439C23.6662 33.9233 23.6587 34.246 23.4289 34.3149L22.3921 34.6255C22.2893 34.6563 22.218 34.7498 22.2155 34.8571L22.1906 35.9392Z" fill="#282633"/>
</svg>
