<svg width="156" height="79" viewBox="0 0 156 79" fill="none" xmlns="http://www.w3.org/2000/svg">
<path d="M10.1501 43.348C9.69971 43.2017 9.69971 42.5645 10.1501 42.4182L13.8703 41.2094C14.0717 41.144 14.2081 40.9563 14.2081 40.7445L14.2081 36.8328C14.2081 36.3593 14.8141 36.1624 15.0924 36.5455L17.3916 39.7101C17.5161 39.8815 17.7368 39.9532 17.9382 39.8877L21.6584 38.6789C22.1088 38.5326 22.4833 39.0481 22.2049 39.4312L19.9057 42.5958C19.7812 42.7671 19.7812 42.9991 19.9057 43.1704L22.2049 46.3351C22.4833 46.7182 22.1088 47.2336 21.6584 47.0873L17.9382 45.8785C17.7368 45.8131 17.5161 45.8848 17.3916 46.0561L15.0924 49.2207C14.8141 49.6038 14.2081 49.4069 14.2081 48.9334L14.2081 45.0217C14.2081 44.8099 14.0717 44.6222 13.8703 44.5568L10.1501 43.348Z" fill="#f5f5f5"/>
<path d="M35.7477 59.7575C36.0442 59.3882 36.64 59.6142 36.6171 60.0872L36.428 63.9943C36.4178 64.2058 36.545 64.3999 36.743 64.475L40.4004 65.8621C40.8432 66.03 40.8124 66.6664 40.3555 66.7908L36.5812 67.8184C36.3769 67.8741 36.2316 68.055 36.2214 68.2665L36.0323 72.1736C36.0095 72.6466 35.3947 72.814 35.1352 72.4179L32.9916 69.1458C32.8755 68.9687 32.6586 68.8864 32.4543 68.9421L28.6799 69.9697C28.223 70.0941 27.8739 69.5611 28.1704 69.1919L30.6199 66.1421C30.7525 65.9769 30.7637 65.7452 30.6476 65.5681L28.504 62.296C28.2445 61.8999 28.6435 61.4032 29.0863 61.5711L32.7437 62.9582C32.9417 63.0333 33.1656 62.9724 33.2982 62.8073L35.7477 59.7575Z" fill="#f5f5f5"/>
<mask id="path-3-inside-1_511_88" fill="white">
<path fill-rule="evenodd" clip-rule="evenodd" d="M51.4097 36.3267C51.5734 37.2269 50.8818 38.0555 49.9669 38.0555H47.7085L45.6825 46.8285H46.0992C46.9097 46.8285 47.4957 47.6032 47.2752 48.3831L44.1654 59.3819C44.0166 59.9081 43.5363 60.2715 42.9894 60.2715H42.578L39.4666 73.7449C39.3385 74.2993 38.8448 74.692 38.2758 74.692H14.3802C13.8112 74.692 13.3175 74.2993 13.1895 73.7449L10.078 60.2715H9.6677C9.12084 60.2715 8.64055 59.9081 8.49174 59.3819L5.38142 48.3832C5.16085 47.6032 5.74683 46.8285 6.55738 46.8285H6.97359L4.94759 38.0555H2.6554C1.74042 38.0555 1.04885 37.2268 1.21256 36.3266L2.37126 29.9551C2.49807 29.2578 3.10538 28.751 3.8141 28.751H48.8086C49.5174 28.751 50.1247 29.2579 50.2515 29.9552L51.4097 36.3267Z"/>
</mask>
<path d="M51.4097 36.3267L53.093 36.0207L53.093 36.0207L51.4097 36.3267ZM47.7085 38.0555V36.3446H46.3476L46.0414 37.6705L47.7085 38.0555ZM45.6825 46.8285L44.0154 46.4436L43.5314 48.5395H45.6825V46.8285ZM47.2752 48.3831L45.6288 47.9176L45.6288 47.9176L47.2752 48.3831ZM44.1654 59.3819L42.519 58.9164L42.519 58.9164L44.1654 59.3819ZM42.578 60.2715V58.5605H41.2172L40.911 59.8865L42.578 60.2715ZM39.4666 73.7449L41.1336 74.1298L41.1336 74.1298L39.4666 73.7449ZM13.1895 73.7449L14.8565 73.3599L14.8565 73.3599L13.1895 73.7449ZM10.078 60.2715L11.7451 59.8865L11.4389 58.5605H10.078V60.2715ZM8.49174 59.3819L6.84538 59.8475L6.84539 59.8475L8.49174 59.3819ZM5.38142 48.3832L7.02777 47.9176L7.02777 47.9176L5.38142 48.3832ZM6.97359 46.8285V48.5395H9.12464L8.64063 46.4436L6.97359 46.8285ZM4.94759 38.0555L6.61463 37.6705L6.30843 36.3446H4.94759V38.0555ZM1.21256 36.3266L2.89587 36.6327L2.89587 36.6327L1.21256 36.3266ZM2.37126 29.9551L0.687958 29.649L0.687958 29.649L2.37126 29.9551ZM50.2515 29.9552L51.9348 29.6492L51.9348 29.6492L50.2515 29.9552ZM49.9669 39.7664C51.9492 39.7664 53.4476 37.9711 53.093 36.0207L49.7264 36.6327C49.6991 36.4827 49.8144 36.3446 49.9669 36.3446V39.7664ZM47.7085 39.7664H49.9669V36.3446H47.7085V39.7664ZM47.3495 47.2135L49.3755 38.4405L46.0414 37.6705L44.0154 46.4436L47.3495 47.2135ZM46.0992 45.1176H45.6825V48.5395H46.0992V45.1176ZM48.9215 48.8486C49.4508 46.9767 48.0444 45.1176 46.0992 45.1176V48.5395C45.775 48.5395 45.5406 48.2296 45.6288 47.9176L48.9215 48.8486ZM45.8117 59.8474L48.9215 48.8486L45.6288 47.9176L42.519 58.9164L45.8117 59.8474ZM42.9894 61.9824C44.3019 61.9824 45.4546 61.1104 45.8117 59.8474L42.519 58.9164C42.5785 58.7059 42.7706 58.5605 42.9894 58.5605V61.9824ZM42.578 61.9824H42.9894V58.5605H42.578V61.9824ZM41.1336 74.1298L44.2451 60.6564L40.911 59.8865L37.7995 73.3599L41.1336 74.1298ZM38.2758 76.4029C39.6414 76.4029 40.8263 75.4604 41.1336 74.1298L37.7995 73.3599C37.8507 73.1381 38.0482 72.981 38.2758 72.981V76.4029ZM14.3802 76.4029H38.2758V72.981H14.3802V76.4029ZM11.5225 74.1298C11.8297 75.4604 13.0146 76.4029 14.3802 76.4029V72.981C14.6078 72.981 14.8053 73.1381 14.8565 73.3599L11.5225 74.1298ZM8.41098 60.6564L11.5225 74.1298L14.8565 73.3599L11.7451 59.8865L8.41098 60.6564ZM9.6677 61.9824H10.078V58.5605H9.6677V61.9824ZM6.84539 59.8475C7.20253 61.1104 8.35524 61.9824 9.6677 61.9824V58.5605C9.88645 58.5605 10.0786 58.7059 10.1381 58.9164L6.84539 59.8475ZM3.73506 48.8487L6.84538 59.8475L10.1381 58.9164L7.02777 47.9176L3.73506 48.8487ZM6.55738 45.1176C4.61205 45.1176 3.20571 46.9768 3.73506 48.8487L7.02777 47.9176C7.11599 48.2296 6.88161 48.5395 6.55738 48.5395V45.1176ZM6.97359 45.1176H6.55738V48.5395H6.97359V45.1176ZM3.28055 38.4405L5.30655 47.2135L8.64063 46.4436L6.61463 37.6705L3.28055 38.4405ZM2.6554 39.7664H4.94759V36.3446H2.6554V39.7664ZM-0.470743 36.0205C-0.825447 37.971 0.672953 39.7664 2.6554 39.7664V36.3446C2.80789 36.3446 2.92316 36.4827 2.89587 36.6327L-0.470743 36.0205ZM0.687958 29.649L-0.470743 36.0205L2.89587 36.6327L4.05457 30.2612L0.687958 29.649ZM3.8141 27.0401C2.27854 27.0401 0.962702 28.1382 0.687958 29.649L4.05457 30.2612C4.03344 30.3774 3.93222 30.4619 3.8141 30.4619V27.0401ZM48.8086 27.0401H3.8141V30.4619H48.8086V27.0401ZM51.9348 29.6492C51.6601 28.1383 50.3442 27.0401 48.8086 27.0401V30.4619C48.6905 30.4619 48.5893 30.3774 48.5681 30.2612L51.9348 29.6492ZM53.093 36.0207L51.9348 29.6492L48.5681 30.2612L49.7264 36.6327L53.093 36.0207Z" fill="#f5f5f5" mask="url(#path-3-inside-1_511_88)"/>
<path d="M42.9897 60.2715C43.5366 60.2715 44.0169 59.9082 44.1657 59.3819L47.2755 48.3832C47.496 47.6032 46.9101 46.8286 46.0995 46.8286H6.55773C5.74718 46.8286 5.16121 47.6033 5.38177 48.3832L8.49209 59.382C8.6409 59.9082 9.1212 60.2715 9.66806 60.2715H42.9897Z" fill="#f5f5f5"/>
<path d="M51.4098 36.3267C51.5734 37.2269 50.8818 38.0555 49.9669 38.0555H2.65544C1.74046 38.0555 1.04889 37.2268 1.2126 36.3266L2.3713 29.9551C2.49811 29.2578 3.10542 28.751 3.81414 28.751H48.8086C49.5174 28.751 50.1247 29.2579 50.2515 29.9552L51.4098 36.3267Z" fill="#f5f5f5"/>
<path d="M47.6677 24.4518V34.5817H4.95556V24.4518C4.95556 12.6571 14.517 3.09569 26.3116 3.09569C38.1063 3.09569 47.6677 12.6571 47.6677 24.4518Z" stroke="#f5f5f5" stroke-width="1.71092"/>
<path fill-rule="evenodd" clip-rule="evenodd" d="M35.6534 24.9794V23.4827V21.2565C35.6534 19.654 34.6804 18.2747 33.2859 17.685L33.2857 17.6849C31.2554 16.826 29.8745 14.9972 29.4172 12.9472L29.4171 12.9468L29.0229 11.1811L24.9862 14.2478L24.986 14.248C23.1912 15.6118 21.1907 16.8144 18.978 17.6071L18.978 17.6071C17.4787 18.1442 16.4099 19.5782 16.4099 21.2571V23.4834V24.9736C16.3979 25.0973 16.2937 25.1941 16.1669 25.1943V25.1943H14.6989C12.5589 25.1943 10.824 26.9293 10.824 29.0693V29.5846H41.2393V29.0693V29.0689C41.2398 26.9286 39.5051 25.1937 37.3644 25.1937H35.8593C35.7508 25.1772 35.6657 25.0893 35.6534 24.9794ZM42.9503 29.5846V31.2956H41.2393H10.824H9.11304V29.5846V29.0693C9.11304 25.9844 11.614 23.4834 14.6989 23.4834V21.7725V21.2571C14.6989 18.8331 16.2431 16.7694 18.401 15.9964C20.4069 15.2777 22.2543 14.1749 23.951 12.8856L28.5947 9.35783C29.3039 8.81909 30.3326 9.19546 30.5267 10.0647L31.087 12.5744C31.4354 14.1364 32.4779 15.4854 33.9523 16.1092C35.9576 16.9572 37.3644 18.9426 37.3644 21.2565V21.7718V23.4827C40.4499 23.4827 42.9509 25.9837 42.9503 29.0693V29.5846Z" fill="#f5f5f5"/>
<path d="M10.7409 56.0338C10.2253 56.0338 9.84661 55.9038 9.6048 55.6437C9.36299 55.3837 9.24209 54.9525 9.24209 54.3503C9.24209 53.8712 9.32193 53.3557 9.48162 52.8036C9.64587 52.2516 9.90593 51.7793 10.2618 51.387C10.6222 50.99 11.0785 50.7916 11.6305 50.7916C11.9727 50.7916 12.2487 50.8668 12.4586 51.0174C12.6685 51.168 12.7734 51.3984 12.7734 51.7086C12.7734 51.9048 12.7346 52.0599 12.6571 52.174C12.5795 52.2835 12.4586 52.3382 12.2944 52.3382C12.1301 52.3382 12.0001 52.2789 11.9043 52.1603C11.9864 52.1192 12.0594 52.0371 12.1233 51.9139C12.1871 51.7907 12.2191 51.663 12.2191 51.5307C12.2191 51.4075 12.1849 51.3071 12.1164 51.2296C12.0526 51.152 11.9476 51.1132 11.8016 51.1132C11.5598 51.1132 11.3294 51.2798 11.1104 51.6128C10.8914 51.9413 10.7135 52.3565 10.5766 52.8584C10.4443 53.3602 10.3781 53.8438 10.3781 54.3092C10.3781 54.656 10.4375 54.9206 10.5561 55.1031C10.6747 55.2856 10.8891 55.3768 11.1994 55.3768C11.4686 55.3768 11.7172 55.3175 11.9453 55.1989C12.1735 55.0803 12.3696 54.9115 12.5339 54.6925L12.6913 54.7609C12.5772 55.0483 12.4084 55.2879 12.1849 55.4795C11.9613 55.6711 11.7218 55.8125 11.4663 55.9038C11.2108 55.9905 10.969 56.0338 10.7409 56.0338ZM13.513 55.9517C13.1754 55.9517 12.9085 55.865 12.7123 55.6916C12.5161 55.5183 12.418 55.2445 12.418 54.8704C12.418 54.5601 12.4819 54.2157 12.6097 53.837C12.7374 53.4583 12.9427 53.1321 13.2256 52.8584C13.5085 52.58 13.8643 52.4409 14.2932 52.4409C14.8772 52.4409 15.1692 52.8059 15.1692 53.5359V53.5427C15.1829 53.5473 15.208 53.5496 15.2445 53.5496C15.395 53.5496 15.5684 53.5108 15.7646 53.4332C15.9608 53.3511 16.1387 53.253 16.2984 53.1389L16.36 53.3237C16.2277 53.4652 16.0543 53.5861 15.8399 53.6864C15.63 53.7822 15.3996 53.8507 15.1487 53.8917C15.1122 54.3069 15.0186 54.6696 14.8681 54.9799C14.7175 55.2901 14.5236 55.5297 14.2864 55.6985C14.0491 55.8673 13.7913 55.9517 13.513 55.9517ZM13.7868 55.3358C13.8963 55.3358 14.0058 55.2742 14.1153 55.151C14.2248 55.0232 14.3206 54.8521 14.4027 54.6377C14.4848 54.4187 14.5441 54.1769 14.5806 53.9123C14.4574 53.8849 14.3958 53.7891 14.3958 53.6248C14.3958 53.4378 14.4666 53.3146 14.608 53.2553C14.5989 53.1047 14.5761 53.0021 14.5396 52.9473C14.5031 52.888 14.4392 52.8584 14.3479 52.8584C14.1974 52.8584 14.0514 52.9679 13.9099 53.1869C13.7685 53.4058 13.6545 53.6682 13.5678 53.9739C13.4811 54.2796 13.4377 54.5487 13.4377 54.7814C13.4377 55.0004 13.4628 55.1487 13.513 55.2263C13.5632 55.2993 13.6545 55.3358 13.7868 55.3358ZM14.8985 57.6352C14.6841 57.6352 14.497 57.5645 14.3374 57.4231C14.1731 57.2862 14.091 57.1106 14.091 56.8961C14.091 56.6999 14.1412 56.538 14.2415 56.4102C14.3419 56.2825 14.4742 56.1798 14.6385 56.1023C14.7982 56.0293 15.0103 55.9517 15.2749 55.8696L16.0962 51.9618C16.1874 51.5238 16.3471 51.2204 16.5752 51.0516C16.8079 50.8828 17.0634 50.7984 17.3417 50.7984C17.4968 50.7984 17.6406 50.8372 17.7729 50.9148C17.9098 50.9923 18.0101 51.0973 18.074 51.2296C18.2976 50.9421 18.6101 50.7984 19.0116 50.7984C19.226 50.7984 19.4131 50.8691 19.5728 51.0106C19.737 51.1474 19.8191 51.3231 19.8191 51.5375C19.8191 51.6425 19.8123 51.736 19.7986 51.8181H19.4769C19.4861 51.7177 19.4906 51.6562 19.4906 51.6333C19.4906 51.5603 19.4655 51.5033 19.4154 51.4622C19.3652 51.4212 19.3036 51.4007 19.2306 51.4007C19.007 51.4007 18.8519 51.5809 18.7652 51.9413L18.642 52.5025H19.3264L19.2648 52.7762H18.5873L17.8139 56.4718C17.7227 56.9098 17.5607 57.2132 17.328 57.382C17.0999 57.5508 16.8467 57.6352 16.5684 57.6352C16.1943 57.6352 15.9479 57.4915 15.8293 57.2041C15.6103 57.4915 15.3 57.6352 14.8985 57.6352ZM17.6497 52.5025L17.766 51.9618L17.8071 51.7839C17.8162 51.7109 17.8208 51.6607 17.8208 51.6333C17.8208 51.5603 17.7957 51.5033 17.7455 51.4622C17.6953 51.4212 17.6337 51.4007 17.5607 51.4007C17.3372 51.4007 17.182 51.5809 17.0954 51.9413L16.9722 52.5025H17.6497ZM17.0132 55.5479L17.5949 52.7762H16.9174L16.3083 55.6711L17.0132 55.5479ZM16.411 57.0261C16.4931 57.0261 16.5707 56.9828 16.6437 56.8961C16.7167 56.814 16.7737 56.6794 16.8148 56.4923L16.979 55.7122L16.2741 55.8422L16.1441 56.4718C16.1121 56.6132 16.0688 56.7524 16.0141 56.8893C16.0642 56.9805 16.1966 57.0261 16.411 57.0261ZM14.7822 57.0261C14.8643 57.0261 14.9419 56.9828 15.0149 56.8961C15.0879 56.814 15.1449 56.6794 15.186 56.4923L15.2681 56.0954C15.0263 56.1775 14.8392 56.2711 14.7069 56.376C14.5746 56.4855 14.5084 56.6269 14.5084 56.8003C14.5084 56.8551 14.5358 56.9052 14.5906 56.9509C14.6453 57.0011 14.7092 57.0261 14.7822 57.0261ZM19.9753 55.9654C19.6376 55.9654 19.3753 55.8787 19.1882 55.7053C19.0012 55.5274 18.9076 55.2514 18.9076 54.8772C18.9076 54.5624 18.9692 54.2157 19.0924 53.837C19.2156 53.4583 19.4164 53.1321 19.6947 52.8584C19.973 52.58 20.3266 52.4409 20.7554 52.4409C21.2573 52.4409 21.5082 52.6599 21.5082 53.0979C21.5082 53.3534 21.4352 53.5883 21.2892 53.8028C21.1432 54.0172 20.9493 54.1906 20.7075 54.3229C20.4657 54.4506 20.2079 54.5236 19.9342 54.5419C19.9251 54.6788 19.9205 54.77 19.9205 54.8156C19.9205 55.0392 19.9593 55.192 20.0368 55.2742C20.1144 55.3517 20.2399 55.3905 20.4132 55.3905C20.6596 55.3905 20.8695 55.3335 21.0429 55.2194C21.2208 55.1054 21.4147 54.932 21.6246 54.6993H21.8573C21.3508 55.5434 20.7235 55.9654 19.9753 55.9654ZM19.9889 54.2134C20.1578 54.2043 20.3174 54.145 20.468 54.0355C20.6231 53.926 20.7463 53.7868 20.8376 53.618C20.9334 53.4492 20.9813 53.2713 20.9813 53.0842C20.9813 52.8971 20.9242 52.8036 20.8102 52.8036C20.6459 52.8036 20.484 52.9473 20.3243 53.2348C20.1692 53.5222 20.0574 53.8484 19.9889 54.2134ZM22.5881 55.9654C22.255 55.9654 21.995 55.8787 21.8079 55.7053C21.6209 55.5274 21.5273 55.2514 21.5273 54.8772C21.5273 54.5624 21.5889 54.2157 21.7121 53.837C21.8353 53.4583 22.036 53.1321 22.3143 52.8584C22.5927 52.58 22.9462 52.4409 23.3751 52.4409C23.877 52.4409 24.1279 52.6599 24.1279 53.0979C24.1279 53.3534 24.0549 53.5883 23.9089 53.8028C23.7629 54.0172 23.569 54.1906 23.3272 54.3229C23.0854 54.4506 22.8276 54.5236 22.5539 54.5419C22.5447 54.6423 22.5402 54.7107 22.5402 54.7472C22.5402 55.1259 22.6816 55.3152 22.9645 55.3152C23.0922 55.3152 23.2291 55.281 23.3751 55.2126C23.5211 55.1441 23.6534 55.0575 23.772 54.9525C23.6489 55.6278 23.2542 55.9654 22.5881 55.9654ZM22.6018 54.2134C22.7751 54.2088 22.9371 54.1518 23.0877 54.0423C23.2428 53.9328 23.366 53.7937 23.4572 53.6248C23.553 53.4515 23.601 53.2713 23.601 53.0842C23.601 52.8971 23.5439 52.8036 23.4299 52.8036C23.2702 52.8036 23.1105 52.9496 22.9508 53.2416C22.7957 53.529 22.6793 53.853 22.6018 54.2134ZM27.2897 56.0475C27.0023 56.0475 26.7491 55.9973 26.5301 55.8969C26.3111 55.7966 26.1423 55.6574 26.0237 55.4795C25.905 55.297 25.8457 55.0871 25.8457 54.8499C25.8457 54.6491 25.8868 54.4666 25.9689 54.3024C26.0556 54.1381 26.1697 54.0081 26.3111 53.9123C26.4571 53.8165 26.6168 53.7686 26.7902 53.7686C26.9498 53.7686 27.0844 53.8096 27.1939 53.8917C27.3034 53.9693 27.3719 54.0788 27.3992 54.2202C27.162 54.2202 26.9726 54.2841 26.8312 54.4119C26.6898 54.5351 26.6191 54.7039 26.6191 54.9183C26.6191 55.1145 26.6784 55.2719 26.797 55.3905C26.9156 55.5091 27.073 55.5684 27.2692 55.5684C27.511 55.5684 27.7095 55.4886 27.8646 55.3289C28.0243 55.1647 28.1041 54.9594 28.1041 54.713C28.1041 54.4986 28.0448 54.2955 27.9262 54.1039C27.8076 53.9123 27.6296 53.6796 27.3924 53.4058C27.146 53.123 26.959 52.8812 26.8312 52.6804C26.708 52.4751 26.6464 52.2516 26.6464 52.0097C26.6464 51.7725 26.7126 51.5603 26.8449 51.3733C26.9772 51.1817 27.1597 51.0311 27.3924 50.9216C27.6251 50.8121 27.8874 50.7574 28.1794 50.7574C28.549 50.7574 28.8433 50.844 29.0622 51.0174C29.2858 51.1908 29.3976 51.4235 29.3976 51.7155C29.3976 51.9071 29.3497 52.0622 29.2539 52.1808C29.1581 52.2995 29.0326 52.3588 28.8775 52.3588C28.7041 52.3588 28.5649 52.288 28.46 52.1466C28.5467 52.0827 28.6151 51.9983 28.6653 51.8934C28.7155 51.7885 28.7406 51.679 28.7406 51.5649C28.7406 51.4189 28.6973 51.3026 28.6106 51.2159C28.5239 51.1292 28.4053 51.0858 28.2547 51.0858C28.0722 51.0858 27.9216 51.152 27.803 51.2843C27.689 51.4121 27.6319 51.5763 27.6319 51.7771C27.6319 51.9596 27.6844 52.1306 27.7893 52.2903C27.8943 52.4455 28.0585 52.6462 28.2821 52.8926C28.4646 53.0888 28.6106 53.2576 28.7201 53.399C28.8341 53.5404 28.9299 53.7047 29.0075 53.8917C29.0896 54.0742 29.1307 54.2727 29.1307 54.4871C29.1307 54.7791 29.0486 55.0438 28.8843 55.281C28.7246 55.5183 28.5033 55.7053 28.2205 55.8422C27.9422 55.9791 27.6319 56.0475 27.2897 56.0475ZM30.1936 55.9654C29.9746 55.9654 29.7967 55.8969 29.6598 55.7601C29.5275 55.6232 29.4613 55.4179 29.4613 55.1441C29.4613 55.0301 29.4796 54.8818 29.5161 54.6993L29.9267 52.7762H29.7008L29.7556 52.5025H29.9814L30.1867 51.5581L31.1996 51.4212L30.9669 52.5025H31.3775L31.3228 52.7762H30.9122L30.4742 54.8293C30.4559 54.8978 30.4468 54.9708 30.4468 55.0483C30.4468 55.1396 30.4673 55.2057 30.5084 55.2468C30.554 55.2833 30.627 55.3015 30.7274 55.3015C30.8597 55.3015 30.9829 55.2468 31.097 55.1373C31.211 55.0232 31.2931 54.8772 31.3433 54.6993H31.6308C31.4619 55.192 31.2452 55.5274 30.9806 55.7053C30.716 55.8787 30.4536 55.9654 30.1936 55.9654ZM32.3192 55.9654C31.9816 55.9654 31.7193 55.8787 31.5322 55.7053C31.3452 55.5274 31.2516 55.2514 31.2516 54.8772C31.2516 54.5624 31.3132 54.2157 31.4364 53.837C31.5596 53.4583 31.7603 53.1321 32.0387 52.8584C32.317 52.58 32.6706 52.4409 33.0994 52.4409C33.6013 52.4409 33.8522 52.6599 33.8522 53.0979C33.8522 53.3534 33.7792 53.5883 33.6332 53.8028C33.4872 54.0172 33.2933 54.1906 33.0515 54.3229C32.8097 54.4506 32.5519 54.5236 32.2782 54.5419C32.2691 54.6788 32.2645 54.77 32.2645 54.8156C32.2645 55.0392 32.3033 55.192 32.3808 55.2742C32.4584 55.3517 32.5839 55.3905 32.7572 55.3905C33.0036 55.3905 33.2135 55.3335 33.3869 55.2194C33.5648 55.1054 33.7587 54.932 33.9686 54.6993H34.2013C33.6948 55.5434 33.0675 55.9654 32.3192 55.9654ZM32.3329 54.2134C32.5017 54.2043 32.6614 54.145 32.812 54.0355C32.9671 53.926 33.0903 53.7868 33.1815 53.618C33.2774 53.4492 33.3253 53.2713 33.3253 53.0842C33.3253 52.8971 33.2682 52.8036 33.1542 52.8036C32.9899 52.8036 32.828 52.9473 32.6683 53.2348C32.5131 53.5222 32.4014 53.8484 32.3329 54.2134ZM34.6446 55.9654C34.4256 55.9654 34.2477 55.8969 34.1108 55.7601C33.9785 55.6232 33.9124 55.4179 33.9124 55.1441C33.9124 55.0301 33.9306 54.8818 33.9671 54.6993L34.6994 51.2706L35.7123 51.1338L34.9252 54.8293C34.907 54.8978 34.8979 54.9708 34.8979 55.0483C34.8979 55.1396 34.9184 55.2057 34.9595 55.2468C35.0051 55.2833 35.0781 55.3015 35.1785 55.3015C35.3108 55.3015 35.4339 55.2468 35.548 55.1373C35.6621 55.0232 35.7442 54.8772 35.7944 54.6993H36.0818C35.913 55.192 35.6963 55.5274 35.4317 55.7053C35.167 55.8787 34.9047 55.9654 34.6446 55.9654ZM36.4692 55.9654C36.2502 55.9654 36.0722 55.8969 35.9354 55.7601C35.8031 55.6232 35.7369 55.4179 35.7369 55.1441C35.7369 55.0301 35.7552 54.8818 35.7917 54.6993L36.5239 51.2706L37.5368 51.1338L36.7498 54.8293C36.7315 54.8978 36.7224 54.9708 36.7224 55.0483C36.7224 55.1396 36.7429 55.2057 36.784 55.2468C36.8296 55.2833 36.9026 55.3015 37.003 55.3015C37.1353 55.3015 37.2585 55.2468 37.3725 55.1373C37.4866 55.0232 37.5687 54.8772 37.6189 54.6993H37.9063C37.7375 55.192 37.5208 55.5274 37.2562 55.7053C36.9916 55.8787 36.7292 55.9654 36.4692 55.9654ZM38.4374 55.9654C38.1774 55.9654 37.9606 55.8764 37.7873 55.6985C37.6139 55.5205 37.5272 55.2422 37.5272 54.8635C37.5272 54.5259 37.5934 54.1723 37.7257 53.8028C37.8626 53.4287 38.0633 53.1139 38.3279 52.8584C38.5971 52.5983 38.9165 52.4683 39.286 52.4683C39.4731 52.4683 39.6123 52.5002 39.7035 52.5641C39.7948 52.628 39.8404 52.7124 39.8404 52.8173V52.8652L39.9157 52.5025H40.9011L40.4084 54.8293C40.3901 54.8978 40.381 54.9708 40.381 55.0483C40.381 55.2445 40.4746 55.3426 40.6616 55.3426C40.7894 55.3426 40.8989 55.2833 40.9901 55.1647C41.0859 55.046 41.1612 54.8909 41.216 54.6993H41.5034C41.3346 55.192 41.1247 55.5274 40.8738 55.7053C40.6274 55.8787 40.3787 55.9654 40.1278 55.9654C39.9362 55.9654 39.7811 55.9129 39.6624 55.808C39.5484 55.6985 39.4799 55.5411 39.4571 55.3358C39.3248 55.5228 39.1765 55.6757 39.0123 55.7943C38.8526 55.9083 38.661 55.9654 38.4374 55.9654ZM38.8823 55.3015C38.9963 55.3015 39.1081 55.2491 39.2176 55.1441C39.3317 55.0346 39.4092 54.8864 39.4503 54.6993L39.7788 53.1526C39.7788 53.0933 39.756 53.0363 39.7103 52.9815C39.6647 52.9222 39.594 52.8926 39.4982 52.8926C39.3157 52.8926 39.1514 52.9998 39.0054 53.2142C38.8594 53.4241 38.7454 53.6796 38.6633 53.9807C38.5811 54.2773 38.5401 54.5396 38.5401 54.7677C38.5401 54.9959 38.572 55.1419 38.6359 55.2057C38.7043 55.2696 38.7865 55.3015 38.8823 55.3015ZM41.6838 52.5025H42.6693L42.5804 52.9268C42.7355 52.7899 42.8746 52.685 42.9978 52.612C43.1256 52.539 43.2624 52.5025 43.4084 52.5025C43.5544 52.5025 43.6685 52.5527 43.7506 52.653C43.8373 52.7534 43.8806 52.8743 43.8806 53.0158C43.8806 53.1481 43.8373 53.2644 43.7506 53.3648C43.6639 53.4652 43.543 53.5153 43.3879 53.5153C43.2875 53.5153 43.2191 53.4925 43.1826 53.4469C43.1507 53.3967 43.1256 53.326 43.1073 53.2348C43.0936 53.1754 43.0799 53.1321 43.0663 53.1047C43.0526 53.0774 43.0275 53.0637 42.991 53.0637C42.8952 53.0637 42.813 53.0842 42.7446 53.1253C42.6807 53.1618 42.5963 53.2279 42.4914 53.3237L41.9439 55.9243H40.9584L41.6838 52.5025Z" fill="#DB7A35"/>
<path d="M70.0689 35.2392C67.1309 35.2392 64.9729 34.4982 63.5949 33.0162C62.2169 31.5342 61.5279 29.0772 61.5279 25.6452C61.5279 22.9152 61.9829 19.9772 62.8929 16.8312C63.8289 13.6852 65.3109 10.9942 67.3389 8.75824C69.3929 6.49623 71.9929 5.36523 75.1389 5.36523C77.0889 5.36523 78.6619 5.79424 79.8579 6.65224C81.0539 7.51024 81.6519 8.82324 81.6519 10.5912C81.6519 11.7092 81.4309 12.5932 80.9889 13.2432C80.5469 13.8672 79.8579 14.1792 78.9219 14.1792C77.9859 14.1792 77.2449 13.8412 76.6989 13.1652C77.1669 12.9312 77.5829 12.4632 77.9469 11.7612C78.3109 11.0592 78.4929 10.3312 78.4929 9.57724C78.4929 8.87524 78.2979 8.30324 77.9079 7.86124C77.5439 7.41924 76.9459 7.19824 76.1139 7.19824C74.7359 7.19824 73.4229 8.14724 72.1749 10.0452C70.9269 11.9172 69.9129 14.2832 69.1329 17.1432C68.3789 20.0032 68.0019 22.7592 68.0019 25.4112C68.0019 27.3872 68.3399 28.8952 69.0159 29.9352C69.6919 30.9752 70.9139 31.4952 72.6819 31.4952C74.2159 31.4952 75.6329 31.1572 76.9329 30.4812C78.2329 29.8052 79.3509 28.8432 80.2869 27.5952L81.1839 27.9852C80.5339 29.6232 79.5719 30.9882 78.2979 32.0802C77.0239 33.1722 75.6589 33.9782 74.2029 34.4982C72.7469 34.9922 71.3689 35.2392 70.0689 35.2392ZM85.8666 34.7712C83.9426 34.7712 82.4216 34.2772 81.3036 33.2892C80.1856 32.3012 79.6266 30.7412 79.6266 28.6092C79.6266 26.8412 79.9906 24.8782 80.7186 22.7202C81.4466 20.5622 82.6166 18.7032 84.2286 17.1432C85.8406 15.5572 87.8686 14.7642 90.3126 14.7642C93.6406 14.7642 95.3046 16.8442 95.3046 21.0042V21.0432C95.3826 21.0692 95.5256 21.0822 95.7336 21.0822C96.5916 21.0822 97.5796 20.8612 98.6976 20.4192C99.8156 19.9512 100.83 19.3922 101.74 18.7422L102.091 19.7952C101.337 20.6012 100.349 21.2902 99.1266 21.8622C97.9306 22.4082 96.6176 22.7982 95.1876 23.0322C94.9796 25.3982 94.4466 27.4652 93.5886 29.2332C92.7306 31.0012 91.6256 32.3662 90.2736 33.3282C88.9216 34.2902 87.4526 34.7712 85.8666 34.7712ZM87.4266 31.2612C88.0506 31.2612 88.6746 30.9102 89.2986 30.2082C89.9226 29.4802 90.4686 28.5052 90.9366 27.2832C91.4046 26.0352 91.7426 24.6572 91.9506 23.1492C91.2486 22.9932 90.8976 22.4472 90.8976 21.5112C90.8976 20.4452 91.3006 19.7432 92.1066 19.4052C92.0546 18.5472 91.9246 17.9622 91.7166 17.6502C91.5086 17.3122 91.1446 17.1432 90.6246 17.1432C89.7666 17.1432 88.9346 17.7672 88.1286 19.0152C87.3226 20.2632 86.6726 21.7582 86.1786 23.5002C85.6846 25.2422 85.4376 26.7762 85.4376 28.1022C85.4376 29.3502 85.5806 30.1952 85.8666 30.6372C86.1526 31.0532 86.6726 31.2612 87.4266 31.2612ZM93.7623 44.3652C92.5403 44.3652 91.4743 43.9622 90.5643 43.1562C89.6283 42.3762 89.1603 41.3752 89.1603 40.1532C89.1603 39.0352 89.4463 38.1122 90.0183 37.3842C90.5903 36.6562 91.3443 36.0712 92.2803 35.6292C93.1903 35.2132 94.3993 34.7712 95.9073 34.3032L100.587 12.0342C101.107 9.53824 102.017 7.80924 103.317 6.84724C104.643 5.88524 106.099 5.40424 107.685 5.40424C108.569 5.40424 109.388 5.62524 110.142 6.06724C110.922 6.50924 111.494 7.10724 111.858 7.86124C113.132 6.22324 114.913 5.40424 117.201 5.40424C118.423 5.40424 119.489 5.80724 120.399 6.61323C121.335 7.39324 121.803 8.39424 121.803 9.61624C121.803 10.2142 121.764 10.7472 121.686 11.2152H119.853C119.905 10.6432 119.931 10.2922 119.931 10.1622C119.931 9.74624 119.788 9.42124 119.502 9.18724C119.216 8.95324 118.865 8.83624 118.449 8.83624C117.175 8.83624 116.291 9.86324 115.797 11.9172L115.095 15.1152H118.995L118.644 16.6752H114.783L110.376 37.7352C109.856 40.2312 108.933 41.9602 107.607 42.9222C106.307 43.8842 104.864 44.3652 103.278 44.3652C101.146 44.3652 99.7423 43.5462 99.0663 41.9082C97.8183 43.5462 96.0503 44.3652 93.7623 44.3652ZM109.44 15.1152L110.103 12.0342L110.337 11.0202C110.389 10.6042 110.415 10.3182 110.415 10.1622C110.415 9.74624 110.272 9.42124 109.986 9.18724C109.7 8.95324 109.349 8.83624 108.933 8.83624C107.659 8.83624 106.775 9.86324 106.281 11.9172L105.579 15.1152H109.44ZM105.813 32.4702L109.128 16.6752H105.267L101.796 33.1722L105.813 32.4702ZM102.381 40.8942C102.849 40.8942 103.291 40.6472 103.707 40.1532C104.123 39.6852 104.448 38.9182 104.682 37.8522L105.618 33.4062L101.601 34.1472L100.86 37.7352C100.678 38.5412 100.431 39.3342 100.119 40.1142C100.405 40.6342 101.159 40.8942 102.381 40.8942ZM93.0993 40.8942C93.5673 40.8942 94.0093 40.6472 94.4253 40.1532C94.8413 39.6852 95.1663 38.9182 95.4003 37.8522L95.8683 35.5902C94.4903 36.0582 93.4243 36.5912 92.6703 37.1892C91.9163 37.8132 91.5393 38.6192 91.5393 39.6072C91.5393 39.9192 91.6953 40.2052 92.0073 40.4652C92.3193 40.7512 92.6833 40.8942 93.0993 40.8942ZM122.693 34.8492C120.769 34.8492 119.274 34.3552 118.208 33.3672C117.142 32.3532 116.609 30.7802 116.609 28.6482C116.609 26.8542 116.96 24.8782 117.662 22.7202C118.364 20.5622 119.508 18.7032 121.094 17.1432C122.68 15.5572 124.695 14.7642 127.139 14.7642C129.999 14.7642 131.429 16.0122 131.429 18.5082C131.429 19.9642 131.013 21.3032 130.181 22.5252C129.349 23.7472 128.244 24.7352 126.866 25.4892C125.488 26.2172 124.019 26.6332 122.459 26.7372C122.407 27.5172 122.381 28.0372 122.381 28.2972C122.381 29.5712 122.602 30.4422 123.044 30.9102C123.486 31.3522 124.201 31.5732 125.189 31.5732C126.593 31.5732 127.789 31.2482 128.777 30.5982C129.791 29.9482 130.896 28.9602 132.092 27.6342H133.418C130.532 32.4442 126.957 34.8492 122.693 34.8492ZM122.771 24.8652C123.733 24.8132 124.643 24.4752 125.501 23.8512C126.385 23.2272 127.087 22.4342 127.607 21.4722C128.153 20.5102 128.426 19.4962 128.426 18.4302C128.426 17.3642 128.101 16.8312 127.451 16.8312C126.515 16.8312 125.592 17.6502 124.682 19.2882C123.798 20.9262 123.161 22.7852 122.771 24.8652ZM137.583 34.8492C135.685 34.8492 134.203 34.3552 133.137 33.3672C132.071 32.3532 131.538 30.7802 131.538 28.6482C131.538 26.8542 131.889 24.8782 132.591 22.7202C133.293 20.5622 134.437 18.7032 136.023 17.1432C137.609 15.5572 139.624 14.7642 142.068 14.7642C144.928 14.7642 146.358 16.0122 146.358 18.5082C146.358 19.9642 145.942 21.3032 145.11 22.5252C144.278 23.7472 143.173 24.7352 141.795 25.4892C140.417 26.2172 138.948 26.6332 137.388 26.7372C137.336 27.3092 137.31 27.6992 137.31 27.9072C137.31 30.0652 138.116 31.1442 139.728 31.1442C140.456 31.1442 141.236 30.9492 142.068 30.5592C142.9 30.1692 143.654 29.6752 144.33 29.0772C143.628 32.9252 141.379 34.8492 137.583 34.8492ZM137.661 24.8652C138.649 24.8392 139.572 24.5142 140.43 23.8902C141.314 23.2662 142.016 22.4732 142.536 21.5112C143.082 20.5232 143.355 19.4962 143.355 18.4302C143.355 17.3642 143.03 16.8312 142.38 16.8312C141.47 16.8312 140.56 17.6632 139.65 19.3272C138.766 20.9652 138.103 22.8112 137.661 24.8652ZM61.3345 74.3172C59.6965 74.3172 58.2535 74.0312 57.0055 73.4592C55.7575 72.8872 54.7955 72.0942 54.1195 71.0802C53.4435 70.0402 53.1055 68.8442 53.1055 67.4922C53.1055 66.3482 53.3395 65.3082 53.8075 64.3722C54.3015 63.4362 54.9515 62.6952 55.7575 62.1492C56.5895 61.6032 57.4995 61.3302 58.4875 61.3302C59.3975 61.3302 60.1645 61.5642 60.7885 62.0322C61.4125 62.4742 61.8025 63.0982 61.9585 63.9042C60.6065 63.9042 59.5275 64.2682 58.7215 64.9962C57.9155 65.6982 57.5125 66.6602 57.5125 67.8822C57.5125 69.0002 57.8505 69.8972 58.5265 70.5732C59.2025 71.2492 60.0995 71.5872 61.2175 71.5872C62.5955 71.5872 63.7265 71.1322 64.6105 70.2222C65.5205 69.2862 65.9755 68.1162 65.9755 66.7122C65.9755 65.4902 65.6375 64.3332 64.9615 63.2412C64.2855 62.1492 63.2715 60.8232 61.9195 59.2632C60.5155 57.6512 59.4495 56.2732 58.7215 55.1292C58.0195 53.9592 57.6685 52.6852 57.6685 51.3072C57.6685 49.9552 58.0455 48.7462 58.7995 47.6802C59.5535 46.5882 60.5935 45.7302 61.9195 45.1062C63.2455 44.4822 64.7405 44.1702 66.4045 44.1702C68.5105 44.1702 70.1875 44.6642 71.4355 45.6522C72.7095 46.6402 73.3465 47.9662 73.3465 49.6302C73.3465 50.7222 73.0735 51.6062 72.5275 52.2822C71.9815 52.9582 71.2665 53.2962 70.3825 53.2962C69.3945 53.2962 68.6015 52.8932 68.0035 52.0872C68.4975 51.7232 68.8875 51.2422 69.1735 50.6442C69.4595 50.0462 69.6025 49.4222 69.6025 48.7722C69.6025 47.9402 69.3555 47.2772 68.8615 46.7832C68.3675 46.2892 67.6915 46.0422 66.8335 46.0422C65.7935 46.0422 64.9355 46.4192 64.2595 47.1732C63.6095 47.9012 63.2845 48.8372 63.2845 49.9812C63.2845 51.0212 63.5835 51.9962 64.1815 52.9062C64.7795 53.7902 65.7155 54.9342 66.9895 56.3382C68.0295 57.4562 68.8615 58.4182 69.4855 59.2242C70.1355 60.0302 70.6815 60.9662 71.1235 62.0322C71.5915 63.0722 71.8255 64.2032 71.8255 65.4252C71.8255 67.0892 71.3575 68.5972 70.4215 69.9492C69.5115 71.3012 68.2505 72.3672 66.6385 73.1472C65.0525 73.9272 63.2845 74.3172 61.3345 74.3172ZM77.8827 73.8492C76.6347 73.8492 75.6207 73.4592 74.8407 72.6792C74.0867 71.8992 73.7097 70.7292 73.7097 69.1692C73.7097 68.5192 73.8137 67.6742 74.0217 66.6342L76.3617 55.6752H75.0747L75.3867 54.1152H76.6737L77.8437 48.7332L83.6157 47.9532L82.2897 54.1152H84.6297L84.3177 55.6752H81.9777L79.4817 67.3752C79.3777 67.7652 79.3257 68.1812 79.3257 68.6232C79.3257 69.1432 79.4427 69.5202 79.6767 69.7542C79.9367 69.9622 80.3527 70.0662 80.9247 70.0662C81.6787 70.0662 82.3807 69.7542 83.0307 69.1302C83.6807 68.4802 84.1487 67.6482 84.4347 66.6342H86.0727C85.1107 69.4422 83.8757 71.3532 82.3677 72.3672C80.8597 73.3552 79.3647 73.8492 77.8827 73.8492ZM89.9962 73.8492C88.0722 73.8492 86.5772 73.3552 85.5112 72.3672C84.4452 71.3532 83.9122 69.7802 83.9122 67.6482C83.9122 65.8542 84.2632 63.8782 84.9652 61.7202C85.6672 59.5622 86.8112 57.7032 88.3972 56.1432C89.9832 54.5572 91.9982 53.7642 94.4422 53.7642C97.3022 53.7642 98.7322 55.0122 98.7322 57.5082C98.7322 58.9642 98.3162 60.3032 97.4842 61.5252C96.6522 62.7472 95.5472 63.7352 94.1692 64.4892C92.7912 65.2172 91.3222 65.6332 89.7622 65.7372C89.7102 66.5172 89.6842 67.0372 89.6842 67.2972C89.6842 68.5712 89.9052 69.4422 90.3472 69.9102C90.7892 70.3522 91.5042 70.5732 92.4922 70.5732C93.8962 70.5732 95.0922 70.2482 96.0802 69.5982C97.0942 68.9482 98.1992 67.9602 99.3952 66.6342H100.721C97.8352 71.4442 94.2602 73.8492 89.9962 73.8492ZM90.0742 63.8652C91.0362 63.8132 91.9462 63.4752 92.8042 62.8512C93.6882 62.2272 94.3902 61.4342 94.9102 60.4722C95.4562 59.5102 95.7292 58.4962 95.7292 57.4302C95.7292 56.3642 95.4042 55.8312 94.7542 55.8312C93.8182 55.8312 92.8952 56.6502 91.9852 58.2882C91.1012 59.9262 90.4642 61.7852 90.0742 63.8652ZM103.248 73.8492C102 73.8492 100.986 73.4592 100.206 72.6792C99.452 71.8992 99.075 70.7292 99.075 69.1692C99.075 68.5192 99.179 67.6742 99.387 66.6342L103.56 47.0952L109.332 46.3152L104.847 67.3752C104.743 67.7652 104.691 68.1812 104.691 68.6232C104.691 69.1432 104.808 69.5202 105.042 69.7542C105.302 69.9622 105.718 70.0662 106.29 70.0662C107.044 70.0662 107.746 69.7542 108.396 69.1302C109.046 68.4802 109.514 67.6482 109.8 66.6342H111.438C110.476 69.4422 109.241 71.3532 107.733 72.3672C106.225 73.3552 104.73 73.8492 103.248 73.8492ZM113.645 73.8492C112.397 73.8492 111.383 73.4592 110.603 72.6792C109.849 71.8992 109.472 70.7292 109.472 69.1692C109.472 68.5192 109.576 67.6742 109.784 66.6342L113.957 47.0952L119.729 46.3152L115.244 67.3752C115.14 67.7652 115.088 68.1812 115.088 68.6232C115.088 69.1432 115.205 69.5202 115.439 69.7542C115.699 69.9622 116.115 70.0662 116.687 70.0662C117.441 70.0662 118.143 69.7542 118.793 69.1302C119.443 68.4802 119.911 67.6482 120.197 66.6342H121.835C120.873 69.4422 119.638 71.3532 118.13 72.3672C116.622 73.3552 115.127 73.8492 113.645 73.8492ZM124.862 73.8492C123.38 73.8492 122.145 73.3422 121.157 72.3282C120.169 71.3142 119.675 69.7282 119.675 67.5702C119.675 65.6462 120.052 63.6312 120.806 61.5252C121.586 59.3932 122.73 57.5992 124.238 56.1432C125.772 54.6612 127.592 53.9202 129.698 53.9202C130.764 53.9202 131.557 54.1022 132.077 54.4662C132.597 54.8302 132.857 55.3112 132.857 55.9092V56.1822L133.286 54.1152H138.902L136.094 67.3752C135.99 67.7652 135.938 68.1812 135.938 68.6232C135.938 69.7412 136.471 70.3002 137.537 70.3002C138.265 70.3002 138.889 69.9622 139.409 69.2862C139.955 68.6102 140.384 67.7262 140.696 66.6342H142.334C141.372 69.4422 140.176 71.3532 138.746 72.3672C137.342 73.3552 135.925 73.8492 134.495 73.8492C133.403 73.8492 132.519 73.5502 131.843 72.9522C131.193 72.3282 130.803 71.4312 130.673 70.2612C129.919 71.3272 129.074 72.1982 128.138 72.8742C127.228 73.5242 126.136 73.8492 124.862 73.8492ZM127.397 70.0662C128.047 70.0662 128.684 69.7672 129.308 69.1692C129.958 68.5452 130.4 67.7002 130.634 66.6342L132.506 57.8202C132.506 57.4822 132.376 57.1572 132.116 56.8452C131.856 56.5072 131.453 56.3382 130.907 56.3382C129.867 56.3382 128.931 56.9492 128.099 58.1712C127.267 59.3672 126.617 60.8232 126.149 62.5392C125.681 64.2292 125.447 65.7242 125.447 67.0242C125.447 68.3242 125.629 69.1562 125.993 69.5202C126.383 69.8842 126.851 70.0662 127.397 70.0662ZM143.362 54.1152H148.978L148.471 56.5332C149.355 55.7532 150.148 55.1552 150.85 54.7392C151.578 54.3232 152.358 54.1152 153.19 54.1152C154.022 54.1152 154.672 54.4012 155.14 54.9732C155.634 55.5452 155.881 56.2342 155.881 57.0402C155.881 57.7942 155.634 58.4572 155.14 59.0292C154.646 59.6012 153.957 59.8872 153.073 59.8872C152.501 59.8872 152.111 59.7572 151.903 59.4972C151.721 59.2112 151.578 58.8082 151.474 58.2882C151.396 57.9502 151.318 57.7032 151.24 57.5472C151.162 57.3912 151.019 57.3132 150.811 57.3132C150.265 57.3132 149.797 57.4302 149.407 57.6642C149.043 57.8722 148.562 58.2492 147.964 58.7952L144.844 73.6152H139.228L143.362 54.1152Z" fill="#f5f5f5"/>
</svg>
